<?xml version="1.0" encoding="utf-8" standalone="no"?>
<!DOCTYPE svg PUBLIC "-//W3C//DTD SVG 1.1//EN"
  "http://www.w3.org/Graphics/SVG/1.1/DTD/svg11.dtd">
<svg xmlns:xlink="http://www.w3.org/1999/xlink" width="248.4pt" height="153.519643pt" viewBox="0 0 248.4 153.519643" xmlns="http://www.w3.org/2000/svg" version="1.1">
 <metadata>
  <rdf:RDF xmlns:dc="http://purl.org/dc/elements/1.1/" xmlns:cc="http://creativecommons.org/ns#" xmlns:rdf="http://www.w3.org/1999/02/22-rdf-syntax-ns#">
   <cc:Work>
    <dc:type rdf:resource="http://purl.org/dc/dcmitype/StillImage"/>
    <dc:date>2024-02-14T12:50:09.689837</dc:date>
    <dc:format>image/svg+xml</dc:format>
    <dc:creator>
     <cc:Agent>
      <dc:title>Matplotlib v3.8.1, https://matplotlib.org/</dc:title>
     </cc:Agent>
    </dc:creator>
   </cc:Work>
  </rdf:RDF>
 </metadata>
 <defs>
  <style type="text/css">*{stroke-linejoin: round; stroke-linecap: butt}</style>
 </defs>
 <g id="figure_1">
  <g id="axes_1">
   <g id="patch_1">
    <path d="M 26.797679 123.721963 
L 245.4 123.721963 
L 245.4 3 
L 26.797679 3 
z
" style="fill: #ffffff"/>
   </g>
   <g id="PolyCollection_1">
    <defs>
     <path id="m52301df8f2" d="M 26.797679 -140.861886 
L 26.797679 -131.204129 
L 29.251129 -128.765301 
L 31.704578 -126.326474 
L 34.158027 -123.887646 
L 36.611476 -121.448819 
L 39.064925 -119.009991 
L 41.518374 -116.571163 
L 43.971824 -114.132336 
L 46.425273 -111.693508 
L 48.878722 -109.254681 
L 51.332171 -106.815853 
L 53.78562 -104.377026 
L 56.239069 -101.938198 
L 58.692519 -99.499371 
L 61.145968 -97.060543 
L 63.599417 -94.621716 
L 66.052866 -92.182888 
L 68.506315 -89.74406 
L 70.959764 -87.305233 
L 73.413214 -84.866405 
L 75.866663 -82.427578 
L 78.320112 -79.98875 
L 80.773561 -77.549923 
L 83.22701 -75.111095 
L 85.680459 -72.672268 
L 88.133909 -70.23344 
L 90.587358 -67.794613 
L 93.040807 -65.355785 
L 95.494256 -62.916957 
L 97.947705 -60.47813 
L 100.401154 -58.039302 
L 102.854604 -55.600475 
L 105.308053 -53.942072 
L 107.761502 -53.942072 
L 110.214951 -53.942072 
L 112.6684 -53.942072 
L 115.121849 -53.942072 
L 117.575299 -53.942072 
L 120.028748 -53.942072 
L 122.482197 -53.942072 
L 124.935646 -53.942072 
L 127.389095 -53.942072 
L 129.842544 -53.942072 
L 132.295994 -53.942072 
L 134.749443 -53.942072 
L 137.202892 -53.942072 
L 139.656341 -53.942072 
L 142.10979 -53.942072 
L 144.563239 -53.942072 
L 147.016689 -53.942072 
L 149.470138 -53.942072 
L 151.923587 -53.942072 
L 154.377036 -53.942072 
L 156.830485 -53.942072 
L 156.830485 -54.689979 
L 156.830485 -54.689979 
L 154.377036 -56.315864 
L 151.923587 -57.941749 
L 149.470138 -59.567634 
L 147.016689 -61.193519 
L 144.563239 -62.819404 
L 142.10979 -64.445289 
L 139.656341 -66.071174 
L 137.202892 -67.697059 
L 134.749443 -69.322945 
L 132.295994 -70.94883 
L 129.842544 -72.574715 
L 127.389095 -74.2006 
L 124.935646 -75.826485 
L 122.482197 -77.45237 
L 120.028748 -79.078255 
L 117.575299 -80.70414 
L 115.121849 -82.330025 
L 112.6684 -83.95591 
L 110.214951 -85.581795 
L 107.761502 -87.20768 
L 105.308053 -88.833565 
L 102.854604 -90.45945 
L 100.401154 -92.085335 
L 97.947705 -93.71122 
L 95.494256 -95.337105 
L 93.040807 -96.96299 
L 90.587358 -98.588875 
L 88.133909 -100.21476 
L 85.680459 -101.840645 
L 83.22701 -103.46653 
L 80.773561 -105.092415 
L 78.320112 -106.7183 
L 75.866663 -108.344185 
L 73.413214 -109.97007 
L 70.959764 -111.595955 
L 68.506315 -113.22184 
L 66.052866 -114.847725 
L 63.599417 -116.47361 
L 61.145968 -118.099495 
L 58.692519 -119.72538 
L 56.239069 -121.351265 
L 53.78562 -122.97715 
L 51.332171 -124.603035 
L 48.878722 -126.22892 
L 46.425273 -127.854806 
L 43.971824 -129.480691 
L 41.518374 -131.106576 
L 39.064925 -132.732461 
L 36.611476 -134.358346 
L 34.158027 -135.984231 
L 31.704578 -137.610116 
L 29.251129 -139.236001 
L 26.797679 -140.861886 
z
" style="stroke: #ffffff; stroke-opacity: 0.2"/>
    </defs>
    <g clip-path="url(#p6ada13f984)">
     <use xlink:href="#m52301df8f2" x="0" y="153.519643" style="fill: #0000ff; fill-opacity: 0.2; stroke: #ffffff; stroke-opacity: 0.2"/>
    </g>
   </g>
   <g id="matplotlib.axis_1">
    <g id="text_1">
     <!-- $\mathit{B}$ -->
     <g transform="translate(127.371519 148.093762) scale(0.28 -0.28)">
      <defs>
       <path id="CMSSI17-42" d="M 1517 4416 
L 570 0 
L 2163 0 
C 3149 0 3942 721 3942 1378 
C 3942 1876 3526 2220 2995 2316 
C 3622 2470 4224 2906 4224 3475 
C 4224 4013 3693 4416 2944 4416 
L 1517 4416 
z
M 1958 4057 
L 2694 4057 
C 3354 4057 3725 3735 3725 3406 
C 3725 3052 3245 2496 2298 2496 
L 1619 2496 
L 1958 4057 
z
M 1165 358 
L 1536 2105 
L 2387 2105 
C 2982 2105 3430 1780 3430 1340 
C 3430 830 2810 358 2061 358 
L 1165 358 
z
" transform="scale(0.015625)"/>
      </defs>
      <use xlink:href="#CMSSI17-42" transform="scale(0.996264)"/>
     </g>
    </g>
   </g>
   <g id="matplotlib.axis_2">
    <g id="text_2">
     <!-- $\mathit{C}$ -->
     <g transform="translate(19.371799 71.740789) rotate(-90) scale(0.28 -0.28)">
      <defs>
       <path id="CMSSI17-43" d="M 4384 4262 
C 4038 4428 3802 4480 3238 4480 
C 2042 4480 813 3084 813 1664 
C 813 729 1350 -64 2400 -64 
C 2931 -64 3213 70 3610 294 
L 3661 723 
C 3386 563 3110 352 2470 352 
C 1645 352 1357 1068 1357 1676 
C 1357 2835 2240 4070 3206 4070 
C 3654 4070 3962 3955 4186 3757 
L 4384 4262 
z
" transform="scale(0.015625)"/>
      </defs>
      <use xlink:href="#CMSSI17-43" transform="scale(0.996264)"/>
     </g>
    </g>
   </g>
   <g id="line2d_1">
    <path d="M 26.797679 99.577571 
L 29.251129 99.577571 
L 31.704578 99.577571 
L 34.158027 99.577571 
L 36.611476 99.577571 
L 39.064925 99.577571 
L 41.518374 99.577571 
L 43.971824 99.577571 
L 46.425273 99.577571 
L 48.878722 99.577571 
L 51.332171 99.577571 
L 53.78562 99.577571 
L 56.239069 99.577571 
L 58.692519 99.577571 
L 61.145968 99.577571 
L 63.599417 99.577571 
L 66.052866 99.577571 
L 68.506315 99.577571 
L 70.959764 99.577571 
L 73.413214 99.577571 
L 75.866663 99.577571 
L 78.320112 99.577571 
L 80.773561 99.577571 
L 83.22701 99.577571 
L 85.680459 99.577571 
L 88.133909 99.577571 
L 90.587358 99.577571 
L 93.040807 99.577571 
L 95.494256 99.577571 
L 97.947705 99.577571 
L 100.401154 99.577571 
L 102.854604 99.577571 
L 105.308053 99.577571 
L 107.761502 99.577571 
L 110.214951 99.577571 
L 112.6684 99.577571 
L 115.121849 99.577571 
L 117.575299 99.577571 
L 120.028748 99.577571 
L 122.482197 99.577571 
L 124.935646 99.577571 
L 127.389095 99.577571 
L 129.842544 99.577571 
L 132.295994 99.577571 
L 134.749443 99.577571 
L 137.202892 99.577571 
L 139.656341 99.577571 
L 142.10979 99.577571 
L 144.563239 99.577571 
L 147.016689 99.577571 
L 149.470138 99.577571 
L 151.923587 99.577571 
L 154.377036 99.577571 
L 156.830485 99.577571 
L 159.283934 99.577571 
L 161.737384 99.577571 
L 164.190833 99.577571 
L 166.644282 99.577571 
L 169.097731 99.577571 
L 171.55118 99.577571 
L 174.004629 99.577571 
L 176.458078 99.577571 
L 178.911528 99.577571 
L 181.364977 99.577571 
L 183.818426 99.577571 
L 186.271875 99.577571 
L 188.725324 99.577571 
L 191.178773 99.577571 
L 193.632223 99.577571 
L 196.085672 99.577571 
L 198.539121 99.577571 
L 200.99257 99.577571 
L 203.446019 99.577571 
L 205.899468 99.577571 
L 208.352918 99.577571 
L 210.806367 99.577571 
L 213.259816 99.577571 
L 215.713265 99.577571 
L 218.166714 99.577571 
L 220.620163 99.577571 
L 223.073613 99.577571 
L 225.527062 99.577571 
L 227.980511 99.577571 
L 230.43396 99.577571 
L 232.887409 99.577571 
L 235.340858 99.577571 
L 237.794308 99.577571 
L 240.247757 99.577571 
L 242.701206 99.577571 
L 245.154655 99.577571 
L 247.608104 99.577571 
L 249.4 99.577571 
" clip-path="url(#p6ada13f984)" style="fill: none; stroke: #000000; stroke-width: 2.5; stroke-linecap: square"/>
   </g>
   <g id="line2d_2">
    <path d="M 26.797679 22.315514 
L 29.251129 24.754342 
L 31.704578 27.193169 
L 34.158027 29.631997 
L 36.611476 32.070824 
L 39.064925 34.509652 
L 41.518374 36.948479 
L 43.971824 39.387307 
L 46.425273 41.826134 
L 48.878722 44.264962 
L 51.332171 46.70379 
L 53.78562 49.142617 
L 56.239069 51.581445 
L 58.692519 54.020272 
L 61.145968 56.4591 
L 63.599417 58.897927 
L 66.052866 61.336755 
L 68.506315 63.775582 
L 70.959764 66.21441 
L 73.413214 68.653237 
L 75.866663 71.092065 
L 78.320112 73.530893 
L 80.773561 75.96972 
L 83.22701 78.408548 
L 85.680459 80.847375 
L 88.133909 83.286203 
L 90.587358 85.72503 
L 93.040807 88.163858 
L 95.494256 90.602685 
L 97.947705 93.041513 
L 100.401154 95.48034 
L 102.854604 97.919168 
L 105.308053 100.357995 
L 107.761502 102.796823 
L 110.214951 105.235651 
L 112.6684 107.674478 
L 115.121849 110.113306 
L 117.575299 112.552133 
L 120.028748 114.990961 
L 122.482197 117.429788 
L 124.935646 119.868616 
L 127.389095 122.307443 
L 129.842544 124.746271 
L 132.295994 127.185098 
L 134.749443 129.623926 
L 137.202892 132.062754 
L 139.656341 134.501581 
L 142.10979 136.940409 
L 144.563239 139.379236 
L 147.016689 141.818064 
L 149.470138 144.256891 
L 151.923587 146.695719 
L 154.377036 149.134546 
L 156.830485 151.573374 
L 159.283934 154.012201 
L 159.794418 154.519643 
" clip-path="url(#p6ada13f984)" style="fill: none; stroke: #000000; stroke-width: 2.5; stroke-linecap: square"/>
   </g>
   <g id="line2d_3">
    <path d="M 26.797679 12.657757 
L 29.251129 14.283642 
L 31.704578 15.909527 
L 34.158027 17.535412 
L 36.611476 19.161297 
L 39.064925 20.787182 
L 41.518374 22.413067 
L 43.971824 24.038952 
L 46.425273 25.664837 
L 48.878722 27.290722 
L 51.332171 28.916607 
L 53.78562 30.542492 
L 56.239069 32.168377 
L 58.692519 33.794262 
L 61.145968 35.420147 
L 63.599417 37.046032 
L 66.052866 38.671918 
L 68.506315 40.297803 
L 70.959764 41.923688 
L 73.413214 43.549573 
L 75.866663 45.175458 
L 78.320112 46.801343 
L 80.773561 48.427228 
L 83.22701 50.053113 
L 85.680459 51.678998 
L 88.133909 53.304883 
L 90.587358 54.930768 
L 93.040807 56.556653 
L 95.494256 58.182538 
L 97.947705 59.808423 
L 100.401154 61.434308 
L 102.854604 63.060193 
L 105.308053 64.686078 
L 107.761502 66.311963 
L 110.214951 67.937848 
L 112.6684 69.563733 
L 115.121849 71.189618 
L 117.575299 72.815503 
L 120.028748 74.441388 
L 122.482197 76.067273 
L 124.935646 77.693158 
L 127.389095 79.319043 
L 129.842544 80.944928 
L 132.295994 82.570813 
L 134.749443 84.196698 
L 137.202892 85.822583 
L 139.656341 87.448468 
L 142.10979 89.074353 
L 144.563239 90.700238 
L 147.016689 92.326123 
L 149.470138 93.952008 
L 151.923587 95.577893 
L 154.377036 97.203779 
L 156.830485 98.829664 
L 159.283934 100.455549 
L 161.737384 102.081434 
L 164.190833 103.707319 
L 166.644282 105.333204 
L 169.097731 106.959089 
L 171.55118 108.584974 
L 174.004629 110.210859 
L 176.458078 111.836744 
L 178.911528 113.462629 
L 181.364977 115.088514 
L 183.818426 116.714399 
L 186.271875 118.340284 
L 188.725324 119.966169 
L 191.178773 121.592054 
L 193.632223 123.217939 
L 196.085672 124.843824 
L 198.539121 126.469709 
L 200.99257 128.095594 
L 203.446019 129.721479 
L 205.899468 131.347364 
L 208.352918 132.973249 
L 210.806367 134.599134 
L 213.259816 136.225019 
L 215.713265 137.850904 
L 218.166714 139.476789 
L 220.620163 141.102674 
L 223.073613 142.728559 
L 225.527062 144.354444 
L 227.980511 145.980329 
L 230.43396 147.606214 
L 232.887409 149.232099 
L 235.340858 150.857984 
L 237.794308 152.483869 
L 240.247757 154.109755 
L 240.866275 154.519643 
" clip-path="url(#p6ada13f984)" style="fill: none; stroke: #000000; stroke-width: 2.5; stroke-linecap: square"/>
   </g>
   <g id="line2d_4">
    <defs>
     <path id="m45da6cce86" d="M 3 0 
L -3 -3 
L -3 3 
z
" style="stroke: #000000; stroke-linejoin: miter"/>
    </defs>
    <g>
     <use xlink:href="#m45da6cce86" x="245.4" y="123.721963" style="stroke: #000000; stroke-linejoin: miter"/>
    </g>
   </g>
   <g id="line2d_5">
    <defs>
     <path id="meca00a8fdb" d="M 0 -3 
L -3 3 
L 3 3 
z
" style="stroke: #000000; stroke-linejoin: miter"/>
    </defs>
    <g>
     <use xlink:href="#meca00a8fdb" x="26.797679" y="3" style="stroke: #000000; stroke-linejoin: miter"/>
    </g>
   </g>
   <g id="patch_2">
    <path d="M 26.797679 123.721963 
L 26.797679 3 
" style="fill: none; stroke: #000000; stroke-width: 1.5; stroke-linejoin: miter; stroke-linecap: square"/>
   </g>
   <g id="patch_3">
    <path d="M 26.797679 123.721963 
L 245.4 123.721963 
" style="fill: none; stroke: #000000; stroke-width: 1.5; stroke-linejoin: miter; stroke-linecap: square"/>
   </g>
  </g>
 </g>
 <defs>
  <clipPath id="p6ada13f984">
   <rect x="26.797679" y="3" width="218.602321" height="120.721963"/>
  </clipPath>
 </defs>
</svg>
