<?xml version="1.0" encoding="utf-8" standalone="no"?>
<!DOCTYPE svg PUBLIC "-//W3C//DTD SVG 1.1//EN"
  "http://www.w3.org/Graphics/SVG/1.1/DTD/svg11.dtd">
<svg xmlns:xlink="http://www.w3.org/1999/xlink" width="331.2pt" height="204.692857pt" viewBox="0 0 331.2 204.692857" xmlns="http://www.w3.org/2000/svg" version="1.1">
 <metadata>
  <rdf:RDF xmlns:dc="http://purl.org/dc/elements/1.1/" xmlns:cc="http://creativecommons.org/ns#" xmlns:rdf="http://www.w3.org/1999/02/22-rdf-syntax-ns#">
   <cc:Work>
    <dc:type rdf:resource="http://purl.org/dc/dcmitype/StillImage"/>
    <dc:date>2024-02-14T12:50:09.641581</dc:date>
    <dc:format>image/svg+xml</dc:format>
    <dc:creator>
     <cc:Agent>
      <dc:title>Matplotlib v3.8.1, https://matplotlib.org/</dc:title>
     </cc:Agent>
    </dc:creator>
   </cc:Work>
  </rdf:RDF>
 </metadata>
 <defs>
  <style type="text/css">*{stroke-linejoin: round; stroke-linecap: butt}</style>
 </defs>
 <g id="figure_1">
  <g id="axes_1">
   <g id="patch_1">
    <path d="M 26.797679 174.895178 
L 328.2 174.895178 
L 328.2 3 
L 26.797679 3 
z
" style="fill: #ffffff"/>
   </g>
   <g id="PolyCollection_1">
    <path d="M 26.797679 3 
L 26.797679 71.758071 
L 30.180422 75.230701 
L 33.563164 78.703331 
L 36.945906 82.175961 
L 40.328648 85.64859 
L 43.71139 89.12122 
L 47.094132 92.59385 
L 50.476874 96.06648 
L 53.859616 99.53911 
L 57.242358 103.01174 
L 60.6251 106.48437 
L 64.007843 109.956999 
L 67.390585 113.429629 
L 70.773327 116.902259 
L 74.156069 120.374889 
L 77.538811 123.847519 
L 80.921553 127.320149 
L 84.304295 130.792778 
L 87.687037 134.265408 
L 91.069779 137.738038 
L 94.452521 141.210668 
L 97.835263 144.683298 
L 101.218006 148.155928 
L 104.600748 151.628558 
L 107.98349 155.101187 
L 111.366232 158.573817 
L 114.748974 162.046447 
L 118.131716 165.519077 
L 121.514458 168.991707 
L 124.8972 172.464337 
L 128.279942 175.936967 
L 131.662684 179.409596 
L 135.045426 182.882226 
L 138.428169 186.354856 
L 141.810911 189.827486 
L 145.193653 193.300116 
L 148.576395 196.772746 
L 151.959137 200.245376 
L 155.341879 203.718005 
L 158.724621 207.190635 
L 162.107363 210.663265 
L 165.490105 214.135895 
L 168.872847 217.608525 
L 172.255589 221.081155 
L 175.638332 224.553784 
L 179.021074 228.026414 
L 182.403816 231.499044 
L 185.786558 234.971674 
L 189.1693 238.444304 
L 192.552042 241.916934 
L 195.934784 245.389564 
L 199.317526 248.862193 
L 202.700268 252.334823 
L 206.08301 255.807453 
L 209.465753 259.280083 
L 212.848495 262.752713 
L 216.231237 266.225343 
L 219.613979 269.697973 
L 222.996721 273.170602 
L 226.379463 276.643232 
L 229.762205 280.115862 
L 233.144947 283.588492 
L 236.527689 287.061122 
L 239.910431 290.533752 
L 243.293173 294.006381 
L 246.675916 297.479011 
L 250.058658 300.951641 
L 253.4414 304.424271 
L 256.824142 307.896901 
L 260.206884 311.369531 
L 263.589626 314.842161 
L 266.972368 318.31479 
L 270.35511 321.78742 
L 273.737852 325.26005 
L 277.120594 328.73268 
L 280.503336 332.20531 
L 283.886079 335.67794 
L 287.268821 339.15057 
L 290.651563 342.623199 
L 294.034305 346.095829 
L 297.417047 349.568459 
L 300.799789 353.041089 
L 304.182531 356.513719 
L 307.565273 359.986349 
L 310.948015 363.458978 
L 314.330757 366.931608 
L 317.7135 370.404238 
L 321.096242 373.876868 
L 324.478984 377.349498 
L 327.861726 380.822128 
L 331.244468 384.294758 
L 334.62721 387.767387 
L 338.009952 391.240017 
L 341.392694 394.712647 
L 344.775436 398.185277 
L 348.158178 401.657907 
L 351.54092 405.130537 
L 354.923663 408.603167 
L 358.306405 412.075796 
L 361.689147 415.548426 
L 361.689147 3 
L 361.689147 3 
L 358.306405 3 
L 354.923663 3 
L 351.54092 3 
L 348.158178 3 
L 344.775436 3 
L 341.392694 3 
L 338.009952 3 
L 334.62721 3 
L 331.244468 3 
L 327.861726 3 
L 324.478984 3 
L 321.096242 3 
L 317.7135 3 
L 314.330757 3 
L 310.948015 3 
L 307.565273 3 
L 304.182531 3 
L 300.799789 3 
L 297.417047 3 
L 294.034305 3 
L 290.651563 3 
L 287.268821 3 
L 283.886079 3 
L 280.503336 3 
L 277.120594 3 
L 273.737852 3 
L 270.35511 3 
L 266.972368 3 
L 263.589626 3 
L 260.206884 3 
L 256.824142 3 
L 253.4414 3 
L 250.058658 3 
L 246.675916 3 
L 243.293173 3 
L 239.910431 3 
L 236.527689 3 
L 233.144947 3 
L 229.762205 3 
L 226.379463 3 
L 222.996721 3 
L 219.613979 3 
L 216.231237 3 
L 212.848495 3 
L 209.465753 3 
L 206.08301 3 
L 202.700268 3 
L 199.317526 3 
L 195.934784 3 
L 192.552042 3 
L 189.1693 3 
L 185.786558 3 
L 182.403816 3 
L 179.021074 3 
L 175.638332 3 
L 172.255589 3 
L 168.872847 3 
L 165.490105 3 
L 162.107363 3 
L 158.724621 3 
L 155.341879 3 
L 151.959137 3 
L 148.576395 3 
L 145.193653 3 
L 141.810911 3 
L 138.428169 3 
L 135.045426 3 
L 131.662684 3 
L 128.279942 3 
L 124.8972 3 
L 121.514458 3 
L 118.131716 3 
L 114.748974 3 
L 111.366232 3 
L 107.98349 3 
L 104.600748 3 
L 101.218006 3 
L 97.835263 3 
L 94.452521 3 
L 91.069779 3 
L 87.687037 3 
L 84.304295 3 
L 80.921553 3 
L 77.538811 3 
L 74.156069 3 
L 70.773327 3 
L 67.390585 3 
L 64.007843 3 
L 60.6251 3 
L 57.242358 3 
L 53.859616 3 
L 50.476874 3 
L 47.094132 3 
L 43.71139 3 
L 40.328648 3 
L 36.945906 3 
L 33.563164 3 
L 30.180422 3 
L 26.797679 3 
z
" clip-path="url(#p49393e46b4)" style="fill: #0000ff; fill-opacity: 0.2; stroke: #ffffff; stroke-opacity: 0.2"/>
   </g>
   <g id="matplotlib.axis_1">
    <g id="text_1">
     <!-- $\mathit{q}$ -->
     <g transform="translate(170.750153 199.266976) scale(0.28 -0.28)">
      <defs>
       <path id="CMSSI17-71" d="M 3206 2816 
L 2733 2816 
L 2650 2425 
C 2566 2559 2336 2816 1914 2816 
C 1190 2816 454 1920 454 954 
C 454 475 678 -64 1222 -64 
C 1440 -64 1786 -7 2189 300 
L 1862 -1280 
L 2349 -1280 
L 3206 2816 
z
M 2317 851 
C 2291 747 2291 734 2227 669 
C 2016 423 1779 326 1574 326 
C 1216 326 960 630 960 1097 
C 960 1816 1542 2412 2074 2412 
C 2195 2412 2323 2373 2413 2250 
C 2522 2101 2534 1913 2534 1894 
C 2534 1868 2534 1849 2522 1797 
L 2317 851 
z
" transform="scale(0.015625)"/>
      </defs>
      <use xlink:href="#CMSSI17-71" transform="scale(0.996264)"/>
     </g>
    </g>
   </g>
   <g id="matplotlib.axis_2">
    <g id="text_2">
     <!-- $\mathit{C}$ -->
     <g transform="translate(19.371799 97.327397) rotate(-90) scale(0.28 -0.28)">
      <defs>
       <path id="CMSSI17-43" d="M 4384 4262 
C 4038 4428 3802 4480 3238 4480 
C 2042 4480 813 3084 813 1664 
C 813 729 1350 -64 2400 -64 
C 2931 -64 3213 70 3610 294 
L 3661 723 
C 3386 563 3110 352 2470 352 
C 1645 352 1357 1068 1357 1676 
C 1357 2835 2240 4070 3206 4070 
C 3654 4070 3962 3955 4186 3757 
L 4384 4262 
z
" transform="scale(0.015625)"/>
      </defs>
      <use xlink:href="#CMSSI17-43" transform="scale(0.996264)"/>
     </g>
    </g>
   </g>
   <g id="line2d_1">
    <path d="M 26.797679 71.758071 
L 30.180422 75.230701 
L 33.563164 78.703331 
L 36.945906 82.175961 
L 40.328648 85.64859 
L 43.71139 89.12122 
L 47.094132 92.59385 
L 50.476874 96.06648 
L 53.859616 99.53911 
L 57.242358 103.01174 
L 60.6251 106.48437 
L 64.007843 109.956999 
L 67.390585 113.429629 
L 70.773327 116.902259 
L 74.156069 120.374889 
L 77.538811 123.847519 
L 80.921553 127.320149 
L 84.304295 130.792778 
L 87.687037 134.265408 
L 91.069779 137.738038 
L 94.452521 141.210668 
L 97.835263 144.683298 
L 101.218006 148.155928 
L 104.600748 151.628558 
L 107.98349 155.101187 
L 111.366232 158.573817 
L 114.748974 162.046447 
L 118.131716 165.519077 
L 121.514458 168.991707 
L 124.8972 172.464337 
L 128.279942 175.936967 
L 131.662684 179.409596 
L 135.045426 182.882226 
L 138.428169 186.354856 
L 141.810911 189.827486 
L 145.193653 193.300116 
L 148.576395 196.772746 
L 151.959137 200.245376 
L 155.341879 203.718005 
L 157.265612 205.692857 
" clip-path="url(#p49393e46b4)" style="fill: none; stroke: #000000; stroke-width: 2.5; stroke-linecap: square"/>
   </g>
   <g id="line2d_2">
    <path d="M 26.797679 44.254843 
L 30.180422 47.727472 
L 33.563164 51.200102 
L 36.945906 54.672732 
L 40.328648 58.145362 
L 43.71139 61.617992 
L 47.094132 65.090622 
L 50.476874 68.563252 
L 53.859616 72.035881 
L 57.242358 75.508511 
L 60.6251 78.981141 
L 64.007843 82.453771 
L 67.390585 85.926401 
L 70.773327 89.399031 
L 74.156069 92.871661 
L 77.538811 96.34429 
L 80.921553 99.81692 
L 84.304295 103.28955 
L 87.687037 106.76218 
L 91.069779 110.23481 
L 94.452521 113.70744 
L 97.835263 117.180069 
L 101.218006 120.652699 
L 104.600748 124.125329 
L 107.98349 127.597959 
L 111.366232 131.070589 
L 114.748974 134.543219 
L 118.131716 138.015849 
L 121.514458 141.488478 
L 124.8972 144.961108 
L 128.279942 148.433738 
L 131.662684 151.906368 
L 135.045426 155.378998 
L 138.428169 158.851628 
L 141.810911 162.324258 
L 145.193653 165.796887 
L 148.576395 169.269517 
L 151.959137 172.742147 
L 155.341879 176.214777 
L 158.724621 179.687407 
L 162.107363 183.160037 
L 165.490105 186.632666 
L 168.872847 190.105296 
L 172.255589 193.577926 
L 175.638332 197.050556 
L 179.021074 200.523186 
L 182.403816 203.995816 
L 184.05693 205.692857 
" clip-path="url(#p49393e46b4)" style="fill: none; stroke: #2ca02c; stroke-width: 2.5; stroke-linecap: square"/>
   </g>
   <g id="line2d_3">
    <defs>
     <path id="m0a1f3248b4" d="M 3 0 
L -3 -3 
L -3 3 
z
" style="stroke: #000000; stroke-linejoin: miter"/>
    </defs>
    <g>
     <use xlink:href="#m0a1f3248b4" x="328.2" y="174.895178" style="stroke: #000000; stroke-linejoin: miter"/>
    </g>
   </g>
   <g id="line2d_4">
    <defs>
     <path id="mb8911a9726" d="M 0 -3 
L -3 3 
L 3 3 
z
" style="stroke: #000000; stroke-linejoin: miter"/>
    </defs>
    <g>
     <use xlink:href="#mb8911a9726" x="26.797679" y="3" style="stroke: #000000; stroke-linejoin: miter"/>
    </g>
   </g>
   <g id="patch_2">
    <path d="M 26.797679 174.895178 
L 26.797679 3 
" style="fill: none; stroke: #000000; stroke-width: 1.5; stroke-linejoin: miter; stroke-linecap: square"/>
   </g>
   <g id="patch_3">
    <path d="M 26.797679 174.895178 
L 328.2 174.895178 
" style="fill: none; stroke: #000000; stroke-width: 1.5; stroke-linejoin: miter; stroke-linecap: square"/>
   </g>
  </g>
 </g>
 <defs>
  <clipPath id="p49393e46b4">
   <rect x="26.797679" y="3" width="301.402321" height="171.895178"/>
  </clipPath>
 </defs>
</svg>
