<?xml version="1.0" encoding="utf-8" standalone="no"?>
<!DOCTYPE svg PUBLIC "-//W3C//DTD SVG 1.1//EN"
  "http://www.w3.org/Graphics/SVG/1.1/DTD/svg11.dtd">
<svg xmlns:xlink="http://www.w3.org/1999/xlink" width="120.05997pt" height="74.201142pt" viewBox="0 0 120.05997 74.201142" xmlns="http://www.w3.org/2000/svg" version="1.1">
 <metadata>
  <rdf:RDF xmlns:dc="http://purl.org/dc/elements/1.1/" xmlns:cc="http://creativecommons.org/ns#" xmlns:rdf="http://www.w3.org/1999/02/22-rdf-syntax-ns#">
   <cc:Work>
    <dc:type rdf:resource="http://purl.org/dc/dcmitype/StillImage"/>
    <dc:date>2023-09-04T17:17:46.841618</dc:date>
    <dc:format>image/svg+xml</dc:format>
    <dc:creator>
     <cc:Agent>
      <dc:title>Matplotlib v3.6.3, https://matplotlib.org/</dc:title>
     </cc:Agent>
    </dc:creator>
   </cc:Work>
  </rdf:RDF>
 </metadata>
 <defs>
  <style type="text/css">*{stroke-linejoin: round; stroke-linecap: butt}</style>
 </defs>
 <g id="figure_1">
  <g id="axes_1">
   <g id="patch_1">
    <path d="M 10.584547 63.616595 
L 118.55997 63.616595 
L 118.55997 1.5 
L 10.584547 1.5 
z
" style="fill: #ffffff"/>
   </g>
   <g id="PolyCollection_1">
    <defs>
     <path id="m677393e12c" d="M 10.584547 -72.701142 
L 10.584547 -47.854504 
L 11.796393 -46.599624 
L 13.008238 -45.344743 
L 14.220084 -44.089862 
L 15.431929 -42.834982 
L 16.643774 -41.580101 
L 17.85562 -40.32522 
L 19.067465 -39.070339 
L 20.27931 -37.815459 
L 21.491156 -36.560578 
L 22.703001 -35.305697 
L 23.914847 -34.050817 
L 25.126692 -32.795936 
L 26.338537 -31.541055 
L 27.550383 -30.286174 
L 28.762228 -29.031294 
L 29.974073 -27.776413 
L 31.185919 -26.521532 
L 32.397764 -25.266652 
L 33.60961 -24.011771 
L 34.821455 -23.007866 
L 36.0333 -23.007866 
L 37.245146 -23.007866 
L 38.456991 -23.007866 
L 39.668836 -23.007866 
L 40.880682 -23.007866 
L 42.092527 -23.007866 
L 43.304372 -23.007866 
L 44.516218 -23.007866 
L 45.728063 -23.007866 
L 46.939909 -23.007866 
L 48.151754 -23.007866 
L 49.363599 -23.007866 
L 50.575445 -23.007866 
L 51.78729 -23.007866 
L 52.999135 -23.007866 
L 54.210981 -23.007866 
L 55.422826 -23.007866 
L 56.634672 -23.007866 
L 57.846517 -23.007866 
L 59.058362 -23.007866 
L 60.270208 -23.007866 
L 61.482053 -23.007866 
L 62.693898 -23.007866 
L 63.905744 -23.007866 
L 65.117589 -23.007866 
L 66.329435 -23.007866 
L 67.54128 -23.007866 
L 68.753125 -23.007866 
L 69.964971 -23.007866 
L 71.176816 -23.007866 
L 72.388661 -23.007866 
L 73.600507 -23.007866 
L 74.812352 -23.007866 
L 76.024198 -23.007866 
L 77.236043 -23.007866 
L 78.447888 -23.007866 
L 79.659734 -23.007866 
L 80.871579 -23.007866 
L 82.083424 -23.007866 
L 83.29527 -23.007866 
L 84.507115 -23.007866 
L 85.718961 -23.007866 
L 86.930806 -23.007866 
L 88.142651 -23.007866 
L 89.354497 -23.007866 
L 90.566342 -23.007866 
L 91.778187 -23.007866 
L 92.990033 -23.007866 
L 94.201878 -23.007866 
L 95.413724 -23.007866 
L 96.625569 -23.007866 
L 97.837414 -23.007866 
L 99.04926 -23.007866 
L 100.261105 -23.007866 
L 101.47295 -23.007866 
L 102.684796 -23.007866 
L 103.896641 -23.007866 
L 105.108486 -23.007866 
L 106.320332 -23.007866 
L 107.532177 -23.007866 
L 108.744023 -23.007866 
L 109.955868 -23.007866 
L 111.167713 -23.007866 
L 112.379559 -23.007866 
L 113.591404 -23.007866 
L 114.803249 -23.007866 
L 116.015095 -23.007866 
L 117.22694 -23.007866 
L 118.438786 -23.007866 
L 119.650631 -23.007866 
L 120.862476 -23.007866 
L 122.074322 -23.007866 
L 123.286167 -23.007866 
L 124.498012 -23.007866 
L 125.709858 -23.007866 
L 126.921703 -23.007866 
L 128.133549 -23.007866 
L 129.345394 -23.007866 
L 130.557239 -23.007866 
L 130.557239 -72.701142 
L 130.557239 -72.701142 
L 129.345394 -72.701142 
L 128.133549 -72.701142 
L 126.921703 -72.701142 
L 125.709858 -72.701142 
L 124.498012 -72.701142 
L 123.286167 -72.701142 
L 122.074322 -72.701142 
L 120.862476 -72.701142 
L 119.650631 -72.701142 
L 118.438786 -72.701142 
L 117.22694 -72.701142 
L 116.015095 -72.701142 
L 114.803249 -72.701142 
L 113.591404 -72.701142 
L 112.379559 -72.701142 
L 111.167713 -72.701142 
L 109.955868 -72.701142 
L 108.744023 -72.701142 
L 107.532177 -72.701142 
L 106.320332 -72.701142 
L 105.108486 -72.701142 
L 103.896641 -72.701142 
L 102.684796 -72.701142 
L 101.47295 -72.701142 
L 100.261105 -72.701142 
L 99.04926 -72.701142 
L 97.837414 -72.701142 
L 96.625569 -72.701142 
L 95.413724 -72.701142 
L 94.201878 -72.701142 
L 92.990033 -72.701142 
L 91.778187 -72.701142 
L 90.566342 -72.701142 
L 89.354497 -72.701142 
L 88.142651 -72.701142 
L 86.930806 -72.701142 
L 85.718961 -72.701142 
L 84.507115 -72.701142 
L 83.29527 -72.701142 
L 82.083424 -72.701142 
L 80.871579 -72.701142 
L 79.659734 -72.701142 
L 78.447888 -72.701142 
L 77.236043 -72.701142 
L 76.024198 -72.701142 
L 74.812352 -72.701142 
L 73.600507 -72.701142 
L 72.388661 -72.701142 
L 71.176816 -72.701142 
L 69.964971 -72.701142 
L 68.753125 -72.701142 
L 67.54128 -72.701142 
L 66.329435 -72.701142 
L 65.117589 -72.701142 
L 63.905744 -72.701142 
L 62.693898 -72.701142 
L 61.482053 -72.701142 
L 60.270208 -72.701142 
L 59.058362 -72.701142 
L 57.846517 -72.701142 
L 56.634672 -72.701142 
L 55.422826 -72.701142 
L 54.210981 -72.701142 
L 52.999135 -72.701142 
L 51.78729 -72.701142 
L 50.575445 -72.701142 
L 49.363599 -72.701142 
L 48.151754 -72.701142 
L 46.939909 -72.701142 
L 45.728063 -72.701142 
L 44.516218 -72.701142 
L 43.304372 -72.701142 
L 42.092527 -72.701142 
L 40.880682 -72.701142 
L 39.668836 -72.701142 
L 38.456991 -72.701142 
L 37.245146 -72.701142 
L 36.0333 -72.701142 
L 34.821455 -72.701142 
L 33.60961 -72.701142 
L 32.397764 -72.701142 
L 31.185919 -72.701142 
L 29.974073 -72.701142 
L 28.762228 -72.701142 
L 27.550383 -72.701142 
L 26.338537 -72.701142 
L 25.126692 -72.701142 
L 23.914847 -72.701142 
L 22.703001 -72.701142 
L 21.491156 -72.701142 
L 20.27931 -72.701142 
L 19.067465 -72.701142 
L 17.85562 -72.701142 
L 16.643774 -72.701142 
L 15.431929 -72.701142 
L 14.220084 -72.701142 
L 13.008238 -72.701142 
L 11.796393 -72.701142 
L 10.584547 -72.701142 
z
" style="stroke: #ffffff; stroke-opacity: 0.2"/>
    </defs>
    <g clip-path="url(#p0b3f40eb34)">
     <use xlink:href="#m677393e12c" x="0" y="74.201142" style="fill: #0000ff; fill-opacity: 0.2; stroke: #ffffff; stroke-opacity: 0.2"/>
    </g>
   </g>
   <g id="matplotlib.axis_1">
    <g id="text_1">
     <!-- $\beta$ -->
     <g transform="translate(62.196418 72.651397) scale(0.08 -0.08)">
      <defs>
       <path id="CMMI12-c" d="M 3622 3739 
C 3622 4131 3296 4544 2714 4544 
C 1888 4544 1363 3510 1197 2830 
L 186 -1152 
C 173 -1204 211 -1216 243 -1216 
C 288 -1216 320 -1210 326 -1178 
L 774 592 
C 838 231 1190 -64 1568 -64 
C 2483 -64 3347 657 3347 1618 
C 3347 1863 3290 2108 3155 2314 
C 3078 2437 2982 2527 2880 2599 
C 3341 2823 3622 3222 3622 3739 
z
M 2509 2605 
C 2406 2571 2304 2560 2182 2560 
C 2093 2560 2010 2553 1894 2588 
C 1958 2627 2054 2639 2189 2639 
C 2304 2639 2419 2627 2509 2605 
z
M 3290 3798 
C 3290 3438 3117 2915 2701 2684 
C 2579 2723 2413 2752 2272 2752 
C 2138 2752 1754 2765 1754 2582 
C 1754 2411 2106 2430 2214 2430 
C 2381 2430 2528 2469 2682 2514 
C 2886 2347 2976 2127 2976 1805 
C 2976 1431 2874 1128 2752 850 
C 2541 373 2042 64 1600 64 
C 1133 64 890 438 890 876 
C 890 934 890 1018 915 1115 
L 1331 2784 
C 1542 3641 2080 4413 2701 4413 
C 3162 4413 3290 4086 3290 3798 
z
" transform="scale(0.015625)"/>
      </defs>
      <use xlink:href="#CMMI12-c" transform="scale(0.996264)"/>
     </g>
    </g>
   </g>
   <g id="matplotlib.axis_2">
    <g id="text_2">
     <!-- $\mathit{C}$ -->
     <g transform="translate(5.534802 35.26347) rotate(-90) scale(0.08 -0.08)">
      <defs>
       <path id="CMSSI17-43" d="M 4384 4262 
C 4038 4428 3802 4480 3238 4480 
C 2042 4480 813 3084 813 1664 
C 813 729 1350 -64 2400 -64 
C 2931 -64 3213 70 3610 294 
L 3661 723 
C 3386 563 3110 352 2470 352 
C 1645 352 1357 1068 1357 1676 
C 1357 2835 2240 4070 3206 4070 
C 3654 4070 3962 3955 4186 3757 
L 4384 4262 
z
" transform="scale(0.015625)"/>
      </defs>
      <use xlink:href="#CMSSI17-43" transform="scale(0.996264)"/>
     </g>
    </g>
   </g>
   <g id="line2d_1">
    <path d="M 10.584547 51.193276 
L 11.796393 51.193276 
L 13.008238 51.193276 
L 14.220084 51.193276 
L 15.431929 51.193276 
L 16.643774 51.193276 
L 17.85562 51.193276 
L 19.067465 51.193276 
L 20.27931 51.193276 
L 21.491156 51.193276 
L 22.703001 51.193276 
L 23.914847 51.193276 
L 25.126692 51.193276 
L 26.338537 51.193276 
L 27.550383 51.193276 
L 28.762228 51.193276 
L 29.974073 51.193276 
L 31.185919 51.193276 
L 32.397764 51.193276 
L 33.60961 51.193276 
L 34.821455 51.193276 
L 36.0333 51.193276 
L 37.245146 51.193276 
L 38.456991 51.193276 
L 39.668836 51.193276 
L 40.880682 51.193276 
L 42.092527 51.193276 
L 43.304372 51.193276 
L 44.516218 51.193276 
L 45.728063 51.193276 
L 46.939909 51.193276 
L 48.151754 51.193276 
L 49.363599 51.193276 
L 50.575445 51.193276 
L 51.78729 51.193276 
L 52.999135 51.193276 
L 54.210981 51.193276 
L 55.422826 51.193276 
L 56.634672 51.193276 
L 57.846517 51.193276 
L 59.058362 51.193276 
L 60.270208 51.193276 
L 61.482053 51.193276 
L 62.693898 51.193276 
L 63.905744 51.193276 
L 65.117589 51.193276 
L 66.329435 51.193276 
L 67.54128 51.193276 
L 68.753125 51.193276 
L 69.964971 51.193276 
L 71.176816 51.193276 
L 72.388661 51.193276 
L 73.600507 51.193276 
L 74.812352 51.193276 
L 76.024198 51.193276 
L 77.236043 51.193276 
L 78.447888 51.193276 
L 79.659734 51.193276 
L 80.871579 51.193276 
L 82.083424 51.193276 
L 83.29527 51.193276 
L 84.507115 51.193276 
L 85.718961 51.193276 
L 86.930806 51.193276 
L 88.142651 51.193276 
L 89.354497 51.193276 
L 90.566342 51.193276 
L 91.778187 51.193276 
L 92.990033 51.193276 
L 94.201878 51.193276 
L 95.413724 51.193276 
L 96.625569 51.193276 
L 97.837414 51.193276 
L 99.04926 51.193276 
L 100.261105 51.193276 
L 101.47295 51.193276 
L 102.684796 51.193276 
L 103.896641 51.193276 
L 105.108486 51.193276 
L 106.320332 51.193276 
L 107.532177 51.193276 
L 108.744023 51.193276 
L 109.955868 51.193276 
L 111.167713 51.193276 
L 112.379559 51.193276 
L 113.591404 51.193276 
L 114.803249 51.193276 
L 116.015095 51.193276 
L 117.22694 51.193276 
L 118.438786 51.193276 
L 119.650631 51.193276 
L 120.862476 51.193276 
L 121.05997 51.193276 
" clip-path="url(#p0b3f40eb34)" style="fill: none; stroke: #000000; stroke-linecap: square"/>
   </g>
   <g id="line2d_2">
    <path d="M 10.584547 26.346638 
L 11.796393 27.601519 
L 13.008238 28.856399 
L 14.220084 30.11128 
L 15.431929 31.366161 
L 16.643774 32.621041 
L 17.85562 33.875922 
L 19.067465 35.130803 
L 20.27931 36.385684 
L 21.491156 37.640564 
L 22.703001 38.895445 
L 23.914847 40.150326 
L 25.126692 41.405206 
L 26.338537 42.660087 
L 27.550383 43.914968 
L 28.762228 45.169848 
L 29.974073 46.424729 
L 31.185919 47.67961 
L 32.397764 48.934491 
L 33.60961 50.189371 
L 34.821455 51.444252 
L 36.0333 52.699133 
L 37.245146 53.954013 
L 38.456991 55.208894 
L 39.668836 56.463775 
L 40.880682 57.718655 
L 42.092527 58.973536 
L 43.304372 60.228417 
L 44.516218 61.483298 
L 45.728063 62.738178 
L 46.939909 63.993059 
L 48.151754 65.24794 
L 49.363599 66.50282 
L 50.575445 67.757701 
L 51.78729 69.012582 
L 52.999135 70.267462 
L 54.210981 71.522343 
L 55.422826 72.777224 
L 56.634672 74.032105 
L 57.763618 75.201142 
" clip-path="url(#p0b3f40eb34)" style="fill: none; stroke: #000000; stroke-linecap: square"/>
   </g>
   <g id="line2d_3">
    <defs>
     <path id="m68923a8e8f" d="M 1.5 0 
L -1.5 -1.5 
L -1.5 1.5 
z
" style="stroke: #000000; stroke-width: 0.5; stroke-linejoin: miter"/>
    </defs>
    <g>
     <use xlink:href="#m68923a8e8f" x="118.55997" y="63.616595" style="stroke: #000000; stroke-width: 0.5; stroke-linejoin: miter"/>
    </g>
   </g>
   <g id="line2d_4">
    <defs>
     <path id="m8cf9055019" d="M 0 -1.5 
L -1.5 1.5 
L 1.5 1.5 
z
" style="stroke: #000000; stroke-width: 0.5; stroke-linejoin: miter"/>
    </defs>
    <g>
     <use xlink:href="#m8cf9055019" x="10.584547" y="1.5" style="stroke: #000000; stroke-width: 0.5; stroke-linejoin: miter"/>
    </g>
   </g>
   <g id="line2d_5">
    <defs>
     <path id="m7b8b5dfc64" d="M -1.5 1.5 
L 1.5 -1.5 
M -1.5 -1.5 
L 1.5 1.5 
" style="stroke: #1f77b4; stroke-width: 0.5"/>
    </defs>
    <g>
     <use xlink:href="#m7b8b5dfc64" x="34.579086" y="51.193276" style="fill: #1f77b4; stroke: #1f77b4; stroke-width: 0.5"/>
    </g>
   </g>
   <g id="line2d_6">
    <defs>
     <path id="m859ae0a680" d="M -1.5 1.5 
L 1.5 -1.5 
M -1.5 -1.5 
L 1.5 1.5 
" style="stroke: #ff7f0e; stroke-width: 0.5"/>
    </defs>
    <g>
     <use xlink:href="#m859ae0a680" x="10.584547" y="26.346638" style="fill: #ff7f0e; stroke: #ff7f0e; stroke-width: 0.5"/>
    </g>
   </g>
   <g id="patch_2">
    <path d="M 10.584547 63.616595 
L 10.584547 1.5 
" style="fill: none; stroke: #000000; stroke-width: 0.5; stroke-linejoin: miter; stroke-linecap: square"/>
   </g>
   <g id="patch_3">
    <path d="M 10.584547 63.616595 
L 118.55997 63.616595 
" style="fill: none; stroke: #000000; stroke-width: 0.5; stroke-linejoin: miter; stroke-linecap: square"/>
   </g>
   <g id="text_3">
    <!-- Belief set -->
    <g transform="translate(41.777447 31.315965) scale(0.08 -0.08)">
     <defs>
      <path id="CMSS17-42" d="M 570 4416 
L 570 0 
L 2163 0 
C 3034 0 3667 575 3667 1200 
C 3667 1684 3251 2175 2502 2316 
C 3334 2559 3501 3039 3501 3311 
C 3501 3880 2874 4416 1997 4416 
L 570 4416 
z
M 1088 2496 
L 1088 4057 
L 1824 4057 
C 2483 4057 3002 3722 3002 3305 
C 3002 2925 2592 2496 1766 2496 
L 1088 2496 
z
M 1088 358 
L 1088 2105 
L 1939 2105 
C 2630 2105 3162 1678 3162 1206 
C 3162 772 2694 358 1984 358 
L 1088 358 
z
" transform="scale(0.015625)"/>
      <path id="CMSS17-65" d="M 2502 1375 
C 2502 1587 2490 2001 2285 2347 
C 2061 2713 1696 2816 1421 2816 
C 755 2816 192 2184 192 1363 
C 192 579 774 -64 1510 -64 
C 1798 -64 2150 19 2470 249 
C 2470 275 2458 414 2451 421 
C 2451 433 2432 629 2432 655 
C 2125 408 1773 326 1517 326 
C 1107 326 666 667 646 1375 
L 2502 1375 
z
M 698 1728 
C 781 2086 1062 2425 1421 2425 
C 1517 2425 1965 2412 2080 1728 
L 698 1728 
z
" transform="scale(0.015625)"/>
      <path id="CMSS17-6c" d="M 947 4416 
L 474 4416 
L 474 0 
L 947 0 
L 947 4416 
z
" transform="scale(0.015625)"/>
      <path id="CMSS17-69" d="M 979 4224 
L 442 4224 
L 442 3686 
L 979 3686 
L 979 4224 
z
M 947 2752 
L 474 2752 
L 474 0 
L 947 0 
L 947 2752 
z
" transform="scale(0.015625)"/>
      <path id="CMSS17-66" d="M 1075 2380 
L 1722 2380 
L 1722 2752 
L 1062 2752 
L 1062 3563 
C 1062 4013 1408 4089 1606 4089 
C 1670 4089 1850 4089 2080 4007 
L 2080 4428 
C 1933 4460 1754 4480 1613 4480 
C 1018 4480 602 3994 602 3366 
L 602 2752 
L 160 2752 
L 160 2380 
L 602 2380 
L 602 0 
L 1075 0 
L 1075 2380 
z
" transform="scale(0.015625)"/>
      <path id="CMSS17-73" d="M 2061 2623 
C 1683 2803 1389 2816 1197 2816 
C 742 2816 198 2655 198 2009 
C 198 1363 902 1222 1094 1183 
C 1389 1126 1715 1062 1715 742 
C 1715 339 1254 339 1171 339 
C 915 339 563 409 243 639 
L 166 211 
C 531 0 883 -64 1178 -64 
C 1965 -64 2163 416 2163 780 
C 2163 1094 1984 1305 1862 1401 
C 1651 1567 1574 1587 1050 1695 
C 960 1708 646 1779 646 2067 
C 646 2431 1050 2431 1139 2431 
C 1555 2431 1811 2303 1984 2207 
L 2061 2623 
z
" transform="scale(0.015625)"/>
      <path id="CMSS17-74" d="M 1069 2380 
L 1901 2380 
L 1901 2752 
L 1069 2752 
L 1069 3520 
L 614 3520 
L 614 2752 
L 109 2752 
L 109 2380 
L 602 2380 
L 602 751 
C 602 384 685 -64 1107 -64 
C 1427 -64 1722 25 2003 172 
L 1901 551 
C 1747 416 1562 339 1363 339 
C 1082 339 1069 699 1069 860 
L 1069 2380 
z
" transform="scale(0.015625)"/>
     </defs>
     <use xlink:href="#CMSS17-42" transform="scale(0.996264)"/>
     <use xlink:href="#CMSS17-65" transform="translate(62.33804 0) scale(0.996264)"/>
     <use xlink:href="#CMSS17-6c" transform="translate(103.976862 0) scale(0.996264)"/>
     <use xlink:href="#CMSS17-69" transform="translate(126.157585 0) scale(0.996264)"/>
     <use xlink:href="#CMSS17-65" transform="translate(148.338308 0) scale(0.996264)"/>
     <use xlink:href="#CMSS17-66" transform="translate(189.97713 0) scale(0.996264)"/>
     <use xlink:href="#CMSS17-73" transform="translate(249.832902 0) scale(0.996264)"/>
     <use xlink:href="#CMSS17-65" transform="translate(285.746444 0) scale(0.996264)"/>
     <use xlink:href="#CMSS17-74" transform="translate(327.385266 0) scale(0.996264)"/>
    </g>
   </g>
   <g id="text_4">
    <!-- $(\mathit{C}_{L, \lambda}\mathit{D}, \mathit{C}_{L, \lambda})$ -->
    <g transform="translate(34.579086 46.223948) scale(0.08 -0.08)">
     <defs>
      <path id="CMSS17-28" d="M 1613 4800 
C 1267 4447 474 3627 474 1603 
C 474 -428 1267 -1242 1613 -1600 
L 2003 -1600 
C 1216 -781 960 366 960 1596 
C 960 2820 1203 3973 2003 4800 
L 1613 4800 
z
" transform="scale(0.015625)"/>
      <path id="CMSSI17-4c" d="M 2048 4416 
L 1510 4416 
L 563 0 
L 3002 0 
L 3091 416 
L 1760 416 
C 1683 416 1606 409 1530 409 
L 1190 409 
L 2048 4416 
z
" transform="scale(0.015625)"/>
      <path id="CMSS17-2c" d="M 1088 6 
L 1088 512 
L 576 512 
L 576 0 
L 736 0 
L 570 -775 
L 826 -775 
L 1088 6 
z
" transform="scale(0.015625)"/>
      <path id="CMMI12-15" d="M 1978 3963 
C 1818 4416 1312 4416 1229 4416 
C 1190 4416 1120 4416 1120 4351 
C 1120 4300 1158 4294 1190 4287 
C 1286 4275 1363 4262 1466 4078 
C 1530 3957 2189 2055 2189 2042 
C 2189 2036 2182 2029 2131 1978 
L 467 305 
C 390 229 339 178 339 95 
C 339 6 416 -71 518 -71 
C 544 -71 614 -58 653 -20 
C 755 76 1670 1190 2253 1877 
C 2419 1380 2624 795 2822 261 
C 2854 165 2886 76 2976 -7 
C 3040 -64 3053 -64 3232 -64 
L 3354 -64 
C 3379 -64 3424 -64 3424 -13 
C 3424 12 3418 19 3392 44 
C 3334 114 3290 229 3264 305 
L 1978 3963 
z
" transform="scale(0.015625)"/>
      <path id="CMSSI17-44" d="M 1517 4416 
L 570 0 
L 2150 0 
C 3334 0 4525 1286 4525 2741 
C 4525 3714 3955 4416 3091 4416 
L 1517 4416 
z
M 1965 4057 
L 2867 4057 
C 3552 4057 4000 3561 4000 2735 
C 4000 1540 3181 358 2080 358 
L 1171 358 
L 1965 4057 
z
" transform="scale(0.015625)"/>
      <path id="CMSS17-29" d="M 723 -1600 
C 1069 -1248 1862 -428 1862 1596 
C 1862 3627 1069 4440 723 4800 
L 333 4800 
C 1120 3979 1376 2833 1376 1603 
C 1376 379 1133 -774 333 -1600 
L 723 -1600 
z
" transform="scale(0.015625)"/>
     </defs>
     <use xlink:href="#CMSS17-28" transform="scale(0.996264)"/>
     <use xlink:href="#CMSSI17-43" transform="translate(36.433914 0) scale(0.996264)"/>
     <use xlink:href="#CMSSI17-4c" transform="translate(96.289686 -14.943915) scale(0.697382)"/>
     <use xlink:href="#CMSS17-2c" transform="translate(131.770509 -14.943915) scale(0.697382)"/>
     <use xlink:href="#CMMI12-15" transform="translate(149.987367 -14.943915) scale(0.697382)"/>
     <use xlink:href="#CMSSI17-44" transform="translate(190.318167 0) scale(0.996264)"/>
     <use xlink:href="#CMSS17-2c" transform="translate(265.552442 0) scale(0.996264)"/>
     <use xlink:href="#CMSSI17-43" transform="translate(308.181052 0) scale(0.996264)"/>
     <use xlink:href="#CMSSI17-4c" transform="translate(368.036824 -14.943915) scale(0.697382)"/>
     <use xlink:href="#CMSS17-2c" transform="translate(403.517647 -14.943915) scale(0.697382)"/>
     <use xlink:href="#CMMI12-15" transform="translate(421.734505 -14.943915) scale(0.697382)"/>
     <use xlink:href="#CMSS17-29" transform="translate(462.065305 0) scale(0.996264)"/>
    </g>
   </g>
   <g id="text_5">
    <!-- $\left(0, \mathit{C}_{L, \lambda}\frac{\mathit{T}+\mathit{D}}{\mathit{T}}\right)$ -->
    <g transform="translate(10.584547 26.346638) scale(0.08 -0.08)">
     <defs>
      <path id="CMEX10-30" d="M 2394 -11328 
C 2534 -11328 2573 -11328 2573 -11239 
C 2586 -6750 3104 -3023 5344 108 
C 5389 166 5389 179 5389 191 
C 5389 256 5344 256 5242 256 
C 5139 256 5126 256 5114 243 
C 5088 223 4275 -712 3629 -1999 
C 2784 -3689 2253 -5630 2016 -7960 
C 1997 -8159 1862 -9491 1862 -11008 
L 1862 -11258 
C 1869 -11328 1907 -11328 2042 -11328 
L 2394 -11328 
z
" transform="scale(0.015625)"/>
      <path id="CMEX10-42" d="M 2573 -109 
C 2573 57 2566 64 2394 64 
L 2042 64 
C 1869 64 1862 57 1862 -109 
L 1862 -3732 
C 1862 -3898 1869 -3905 2042 -3905 
L 2394 -3905 
C 2566 -3905 2573 -3898 2573 -3732 
L 2573 -109 
z
" transform="scale(0.015625)"/>
      <path id="CMEX10-40" d="M 2042 320 
C 1907 320 1869 320 1862 249 
L 1862 -1 
C 1862 -3914 2560 -6206 2758 -6853 
C 3194 -8274 3904 -9773 4973 -11092 
C 5069 -11207 5094 -11239 5120 -11252 
C 5133 -11258 5139 -11264 5242 -11264 
C 5344 -11264 5389 -11264 5389 -11200 
C 5389 -11188 5389 -11175 5350 -11117 
C 3219 -8159 2579 -4599 2573 230 
C 2573 320 2534 320 2394 320 
L 2042 320 
z
" transform="scale(0.015625)"/>
      <path id="CMSS17-30" d="M 2758 2073 
C 2758 2439 2752 3120 2490 3647 
C 2227 4153 1805 4288 1504 4288 
C 1069 4288 698 4031 506 3621 
C 301 3191 243 2748 243 2073 
C 243 1611 262 1046 493 551 
C 755 6 1197 -128 1498 -128 
C 1894 -128 2278 83 2496 525 
C 2720 988 2758 1495 2758 2073 
z
M 1498 262 
C 1011 262 864 821 819 1007 
C 742 1328 730 1636 730 2144 
C 730 2542 730 2992 851 3345 
C 998 3756 1254 3897 1498 3897 
C 1971 3897 2125 3422 2176 3255 
C 2272 2915 2272 2516 2272 2144 
C 2272 1546 2272 262 1498 262 
z
" transform="scale(0.015625)"/>
      <path id="CMSSI17-54" d="M 3168 3987 
L 3699 3987 
C 3776 3987 3853 3980 3930 3980 
L 4730 3980 
L 4819 4396 
L 1158 4396 
L 1069 3980 
L 1869 3980 
C 1946 3980 2022 3987 2099 3987 
L 2630 3987 
L 1779 0 
L 2317 0 
L 3168 3987 
z
" transform="scale(0.015625)"/>
      <path id="CMSS17-2b" d="M 2451 1472 
L 4141 1472 
C 4230 1472 4339 1472 4339 1580 
C 4339 1696 4237 1696 4141 1696 
L 2451 1696 
L 2451 3385 
C 2451 3475 2451 3584 2342 3584 
C 2227 3584 2227 3481 2227 3385 
L 2227 1696 
L 531 1696 
C 442 1696 333 1696 333 1587 
C 333 1472 435 1472 531 1472 
L 2227 1472 
L 2227 -194 
C 2227 -282 2227 -391 2336 -391 
C 2451 -391 2451 -289 2451 -194 
L 2451 1472 
z
" transform="scale(0.015625)"/>
      <path id="CMEX10-31" d="M 3731 -11008 
C 3731 -7096 3034 -4804 2835 -4157 
C 2400 -2735 1690 -1237 621 82 
C 525 198 499 230 474 243 
C 461 249 454 256 352 256 
C 256 256 205 256 205 191 
C 205 179 205 166 288 50 
C 2515 -3062 3014 -6904 3021 -11239 
C 3021 -11328 3059 -11328 3200 -11328 
L 3552 -11328 
C 3686 -11328 3725 -11328 3731 -11258 
L 3731 -11008 
z
" transform="scale(0.015625)"/>
      <path id="CMEX10-43" d="M 3731 -109 
C 3731 57 3725 64 3552 64 
L 3200 64 
C 3027 64 3021 57 3021 -109 
L 3021 -3732 
C 3021 -3898 3027 -3905 3200 -3905 
L 3552 -3905 
C 3725 -3905 3731 -3898 3731 -3732 
L 3731 -109 
z
" transform="scale(0.015625)"/>
      <path id="CMEX10-41" d="M 3731 249 
C 3725 320 3686 320 3552 320 
L 3200 320 
C 3059 320 3021 320 3021 230 
C 3021 -430 3014 -1954 2848 -3549 
C 2502 -6859 1651 -9151 250 -11117 
C 205 -11175 205 -11188 205 -11200 
C 205 -11264 256 -11264 352 -11264 
C 454 -11264 467 -11264 480 -11252 
C 506 -11232 1318 -10298 1965 -9011 
C 2810 -7320 3341 -5380 3578 -3049 
C 3597 -2851 3731 -1519 3731 -1 
L 3731 249 
z
" transform="scale(0.015625)"/>
     </defs>
     <use xlink:href="#CMEX10-30" transform="translate(0 90.840835) scale(0.247871)"/>
     <use xlink:href="#CMEX10-42" transform="translate(0 47.215155) scale(0.247871)"/>
     <use xlink:href="#CMEX10-42" transform="translate(0 32.34278) scale(0.247871)"/>
     <use xlink:href="#CMEX10-42" transform="translate(0 17.470405) scale(0.247871)"/>
     <use xlink:href="#CMEX10-40" transform="translate(0 1.606585) scale(0.247871)"/>
     <use xlink:href="#CMSS17-30" transform="translate(21.688733 0) scale(0.996264)"/>
     <use xlink:href="#CMSS17-2c" transform="translate(68.532356 0) scale(0.996264)"/>
     <use xlink:href="#CMSSI17-43" transform="translate(111.160966 0) scale(0.996264)"/>
     <use xlink:href="#CMSSI17-4c" transform="translate(171.016738 -14.943915) scale(0.697382)"/>
     <use xlink:href="#CMSS17-2c" transform="translate(206.497561 -14.943915) scale(0.697382)"/>
     <use xlink:href="#CMMI12-15" transform="translate(224.714419 -14.943915) scale(0.697382)"/>
     <use xlink:href="#CMSSI17-54" transform="translate(266.240733 39.226102) scale(0.697382)"/>
     <use xlink:href="#CMSS17-2b" transform="translate(320.297161 39.226102) scale(0.697382)"/>
     <use xlink:href="#CMSSI17-44" transform="translate(371.304492 39.226102) scale(0.697382)"/>
     <use xlink:href="#CMSSI17-54" transform="translate(318.076272 -34.355253) scale(0.697382)"/>
     <use xlink:href="#CMEX10-31" transform="translate(425.163754 90.840835) scale(0.247871)"/>
     <use xlink:href="#CMEX10-43" transform="translate(425.163754 47.215155) scale(0.247871)"/>
     <use xlink:href="#CMEX10-43" transform="translate(425.163754 32.34278) scale(0.247871)"/>
     <use xlink:href="#CMEX10-43" transform="translate(425.163754 17.470405) scale(0.247871)"/>
     <use xlink:href="#CMEX10-41" transform="translate(425.163754 1.606585) scale(0.247871)"/>
     <path d="M 266.240733 24.410885 
L 423.96824 24.410885 
L 423.96824 25.40233 
L 266.240733 25.40233 
L 266.240733 24.410885 
z
"/>
    </g>
   </g>
  </g>
 </g>
 <defs>
  <clipPath id="p0b3f40eb34">
   <rect x="10.584547" y="1.5" width="107.975423" height="62.116595"/>
  </clipPath>
 </defs>
</svg>
