<?xml version="1.0" encoding="utf-8" standalone="no"?>
<!DOCTYPE svg PUBLIC "-//W3C//DTD SVG 1.1//EN"
  "http://www.w3.org/Graphics/SVG/1.1/DTD/svg11.dtd">
<svg xmlns:xlink="http://www.w3.org/1999/xlink" width="248.4pt" height="153.519643pt" viewBox="0 0 248.4 153.519643" xmlns="http://www.w3.org/2000/svg" version="1.1">
 <metadata>
  <rdf:RDF xmlns:dc="http://purl.org/dc/elements/1.1/" xmlns:cc="http://creativecommons.org/ns#" xmlns:rdf="http://www.w3.org/1999/02/22-rdf-syntax-ns#">
   <cc:Work>
    <dc:type rdf:resource="http://purl.org/dc/dcmitype/StillImage"/>
    <dc:date>2024-02-14T12:50:09.494785</dc:date>
    <dc:format>image/svg+xml</dc:format>
    <dc:creator>
     <cc:Agent>
      <dc:title>Matplotlib v3.8.1, https://matplotlib.org/</dc:title>
     </cc:Agent>
    </dc:creator>
   </cc:Work>
  </rdf:RDF>
 </metadata>
 <defs>
  <style type="text/css">*{stroke-linejoin: round; stroke-linecap: butt}</style>
 </defs>
 <g id="figure_1">
  <g id="axes_1">
   <g id="patch_1">
    <path d="M 26.797679 123.721963 
L 245.4 123.721963 
L 245.4 3 
L 26.797679 3 
z
" style="fill: #ffffff"/>
   </g>
   <g id="PolyCollection_1">
    <defs>
     <path id="mba44008d36" d="M 26.797679 -150.519643 
L 26.797679 -102.230857 
L 29.251129 -99.79203 
L 31.704578 -97.353202 
L 34.158027 -94.914375 
L 36.611476 -92.475547 
L 39.064925 -90.03672 
L 41.518374 -87.597892 
L 43.971824 -85.159065 
L 46.425273 -82.720237 
L 48.878722 -80.28141 
L 51.332171 -77.842582 
L 53.78562 -75.403755 
L 56.239069 -72.964927 
L 58.692519 -70.526099 
L 61.145968 -68.087272 
L 63.599417 -65.648444 
L 66.052866 -63.209617 
L 68.506315 -60.770789 
L 70.959764 -58.331962 
L 73.413214 -55.893134 
L 75.866663 -53.942072 
L 78.320112 -53.942072 
L 80.773561 -53.942072 
L 83.22701 -53.942072 
L 85.680459 -53.942072 
L 88.133909 -53.942072 
L 90.587358 -53.942072 
L 93.040807 -53.942072 
L 95.494256 -53.942072 
L 97.947705 -53.942072 
L 100.401154 -53.942072 
L 102.854604 -53.942072 
L 105.308053 -53.942072 
L 107.761502 -53.942072 
L 110.214951 -53.942072 
L 112.6684 -53.942072 
L 115.121849 -53.942072 
L 117.575299 -53.942072 
L 120.028748 -53.942072 
L 122.482197 -53.942072 
L 124.935646 -53.942072 
L 127.389095 -53.942072 
L 129.842544 -53.942072 
L 132.295994 -53.942072 
L 134.749443 -53.942072 
L 137.202892 -53.942072 
L 139.656341 -53.942072 
L 142.10979 -53.942072 
L 144.563239 -53.942072 
L 147.016689 -53.942072 
L 149.470138 -53.942072 
L 151.923587 -53.942072 
L 154.377036 -53.942072 
L 156.830485 -53.942072 
L 159.283934 -53.942072 
L 161.737384 -53.942072 
L 164.190833 -53.942072 
L 166.644282 -53.942072 
L 169.097731 -53.942072 
L 171.55118 -53.942072 
L 174.004629 -53.942072 
L 176.458078 -53.942072 
L 178.911528 -53.942072 
L 181.364977 -53.942072 
L 183.818426 -53.942072 
L 186.271875 -53.942072 
L 188.725324 -53.942072 
L 191.178773 -53.942072 
L 193.632223 -53.942072 
L 196.085672 -53.942072 
L 198.539121 -53.942072 
L 200.99257 -53.942072 
L 203.446019 -53.942072 
L 205.899468 -53.942072 
L 208.352918 -53.942072 
L 210.806367 -53.942072 
L 213.259816 -53.942072 
L 215.713265 -53.942072 
L 218.166714 -53.942072 
L 220.620163 -53.942072 
L 223.073613 -53.942072 
L 225.527062 -53.942072 
L 227.980511 -53.942072 
L 230.43396 -53.942072 
L 232.887409 -53.942072 
L 235.340858 -53.942072 
L 237.794308 -53.942072 
L 240.247757 -53.942072 
L 242.701206 -53.942072 
L 245.154655 -53.942072 
L 247.608104 -53.942072 
L 250.061553 -53.942072 
L 252.515003 -53.942072 
L 254.968452 -53.942072 
L 257.421901 -53.942072 
L 259.87535 -53.942072 
L 262.328799 -53.942072 
L 264.782248 -53.942072 
L 267.235698 -53.942072 
L 269.689147 -53.942072 
L 269.689147 -150.519643 
L 269.689147 -150.519643 
L 267.235698 -150.519643 
L 264.782248 -150.519643 
L 262.328799 -150.519643 
L 259.87535 -150.519643 
L 257.421901 -150.519643 
L 254.968452 -150.519643 
L 252.515003 -150.519643 
L 250.061553 -150.519643 
L 247.608104 -150.519643 
L 245.154655 -150.519643 
L 242.701206 -150.519643 
L 240.247757 -150.519643 
L 237.794308 -150.519643 
L 235.340858 -150.519643 
L 232.887409 -150.519643 
L 230.43396 -150.519643 
L 227.980511 -150.519643 
L 225.527062 -150.519643 
L 223.073613 -150.519643 
L 220.620163 -150.519643 
L 218.166714 -150.519643 
L 215.713265 -150.519643 
L 213.259816 -150.519643 
L 210.806367 -150.519643 
L 208.352918 -150.519643 
L 205.899468 -150.519643 
L 203.446019 -150.519643 
L 200.99257 -150.519643 
L 198.539121 -150.519643 
L 196.085672 -150.519643 
L 193.632223 -150.519643 
L 191.178773 -150.519643 
L 188.725324 -150.519643 
L 186.271875 -150.519643 
L 183.818426 -150.519643 
L 181.364977 -150.519643 
L 178.911528 -150.519643 
L 176.458078 -150.519643 
L 174.004629 -150.519643 
L 171.55118 -150.519643 
L 169.097731 -150.519643 
L 166.644282 -150.519643 
L 164.190833 -150.519643 
L 161.737384 -150.519643 
L 159.283934 -150.519643 
L 156.830485 -150.519643 
L 154.377036 -150.519643 
L 151.923587 -150.519643 
L 149.470138 -150.519643 
L 147.016689 -150.519643 
L 144.563239 -150.519643 
L 142.10979 -150.519643 
L 139.656341 -150.519643 
L 137.202892 -150.519643 
L 134.749443 -150.519643 
L 132.295994 -150.519643 
L 129.842544 -150.519643 
L 127.389095 -150.519643 
L 124.935646 -150.519643 
L 122.482197 -150.519643 
L 120.028748 -150.519643 
L 117.575299 -150.519643 
L 115.121849 -150.519643 
L 112.6684 -150.519643 
L 110.214951 -150.519643 
L 107.761502 -150.519643 
L 105.308053 -150.519643 
L 102.854604 -150.519643 
L 100.401154 -150.519643 
L 97.947705 -150.519643 
L 95.494256 -150.519643 
L 93.040807 -150.519643 
L 90.587358 -150.519643 
L 88.133909 -150.519643 
L 85.680459 -150.519643 
L 83.22701 -150.519643 
L 80.773561 -150.519643 
L 78.320112 -150.519643 
L 75.866663 -150.519643 
L 73.413214 -150.519643 
L 70.959764 -150.519643 
L 68.506315 -150.519643 
L 66.052866 -150.519643 
L 63.599417 -150.519643 
L 61.145968 -150.519643 
L 58.692519 -150.519643 
L 56.239069 -150.519643 
L 53.78562 -150.519643 
L 51.332171 -150.519643 
L 48.878722 -150.519643 
L 46.425273 -150.519643 
L 43.971824 -150.519643 
L 41.518374 -150.519643 
L 39.064925 -150.519643 
L 36.611476 -150.519643 
L 34.158027 -150.519643 
L 31.704578 -150.519643 
L 29.251129 -150.519643 
L 26.797679 -150.519643 
z
" style="stroke: #ffffff; stroke-opacity: 0.2"/>
    </defs>
    <g clip-path="url(#p6dc697e073)">
     <use xlink:href="#mba44008d36" x="0" y="153.519643" style="fill: #0000ff; fill-opacity: 0.2; stroke: #ffffff; stroke-opacity: 0.2"/>
    </g>
   </g>
   <g id="matplotlib.axis_1">
    <g id="text_1">
     <!-- $\mathit{B}$ -->
     <g transform="translate(127.371519 148.093762) scale(0.28 -0.28)">
      <defs>
       <path id="CMSSI17-42" d="M 1517 4416 
L 570 0 
L 2163 0 
C 3149 0 3942 721 3942 1378 
C 3942 1876 3526 2220 2995 2316 
C 3622 2470 4224 2906 4224 3475 
C 4224 4013 3693 4416 2944 4416 
L 1517 4416 
z
M 1958 4057 
L 2694 4057 
C 3354 4057 3725 3735 3725 3406 
C 3725 3052 3245 2496 2298 2496 
L 1619 2496 
L 1958 4057 
z
M 1165 358 
L 1536 2105 
L 2387 2105 
C 2982 2105 3430 1780 3430 1340 
C 3430 830 2810 358 2061 358 
L 1165 358 
z
" transform="scale(0.015625)"/>
      </defs>
      <use xlink:href="#CMSSI17-42" transform="scale(0.996264)"/>
     </g>
    </g>
   </g>
   <g id="matplotlib.axis_2">
    <g id="text_2">
     <!-- $\mathit{C}$ -->
     <g transform="translate(19.371799 71.740789) rotate(-90) scale(0.28 -0.28)">
      <defs>
       <path id="CMSSI17-43" d="M 4384 4262 
C 4038 4428 3802 4480 3238 4480 
C 2042 4480 813 3084 813 1664 
C 813 729 1350 -64 2400 -64 
C 2931 -64 3213 70 3610 294 
L 3661 723 
C 3386 563 3110 352 2470 352 
C 1645 352 1357 1068 1357 1676 
C 1357 2835 2240 4070 3206 4070 
C 3654 4070 3962 3955 4186 3757 
L 4384 4262 
z
" transform="scale(0.015625)"/>
      </defs>
      <use xlink:href="#CMSSI17-43" transform="scale(0.996264)"/>
     </g>
    </g>
   </g>
   <g id="line2d_1">
    <path d="M 26.797679 99.577571 
L 29.251129 99.577571 
L 31.704578 99.577571 
L 34.158027 99.577571 
L 36.611476 99.577571 
L 39.064925 99.577571 
L 41.518374 99.577571 
L 43.971824 99.577571 
L 46.425273 99.577571 
L 48.878722 99.577571 
L 51.332171 99.577571 
L 53.78562 99.577571 
L 56.239069 99.577571 
L 58.692519 99.577571 
L 61.145968 99.577571 
L 63.599417 99.577571 
L 66.052866 99.577571 
L 68.506315 99.577571 
L 70.959764 99.577571 
L 73.413214 99.577571 
L 75.866663 99.577571 
L 78.320112 99.577571 
L 80.773561 99.577571 
L 83.22701 99.577571 
L 85.680459 99.577571 
L 88.133909 99.577571 
L 90.587358 99.577571 
L 93.040807 99.577571 
L 95.494256 99.577571 
L 97.947705 99.577571 
L 100.401154 99.577571 
L 102.854604 99.577571 
L 105.308053 99.577571 
L 107.761502 99.577571 
L 110.214951 99.577571 
L 112.6684 99.577571 
L 115.121849 99.577571 
L 117.575299 99.577571 
L 120.028748 99.577571 
L 122.482197 99.577571 
L 124.935646 99.577571 
L 127.389095 99.577571 
L 129.842544 99.577571 
L 132.295994 99.577571 
L 134.749443 99.577571 
L 137.202892 99.577571 
L 139.656341 99.577571 
L 142.10979 99.577571 
L 144.563239 99.577571 
L 147.016689 99.577571 
L 149.470138 99.577571 
L 151.923587 99.577571 
L 154.377036 99.577571 
L 156.830485 99.577571 
L 159.283934 99.577571 
L 161.737384 99.577571 
L 164.190833 99.577571 
L 166.644282 99.577571 
L 169.097731 99.577571 
L 171.55118 99.577571 
L 174.004629 99.577571 
L 176.458078 99.577571 
L 178.911528 99.577571 
L 181.364977 99.577571 
L 183.818426 99.577571 
L 186.271875 99.577571 
L 188.725324 99.577571 
L 191.178773 99.577571 
L 193.632223 99.577571 
L 196.085672 99.577571 
L 198.539121 99.577571 
L 200.99257 99.577571 
L 203.446019 99.577571 
L 205.899468 99.577571 
L 208.352918 99.577571 
L 210.806367 99.577571 
L 213.259816 99.577571 
L 215.713265 99.577571 
L 218.166714 99.577571 
L 220.620163 99.577571 
L 223.073613 99.577571 
L 225.527062 99.577571 
L 227.980511 99.577571 
L 230.43396 99.577571 
L 232.887409 99.577571 
L 235.340858 99.577571 
L 237.794308 99.577571 
L 240.247757 99.577571 
L 242.701206 99.577571 
L 245.154655 99.577571 
L 247.608104 99.577571 
L 249.4 99.577571 
" clip-path="url(#p6dc697e073)" style="fill: none; stroke: #000000; stroke-width: 2.5; stroke-linecap: square"/>
   </g>
   <g id="line2d_2">
    <path d="M 26.797679 51.288785 
L 29.251129 53.727613 
L 31.704578 56.16644 
L 34.158027 58.605268 
L 36.611476 61.044095 
L 39.064925 63.482923 
L 41.518374 65.921751 
L 43.971824 68.360578 
L 46.425273 70.799406 
L 48.878722 73.238233 
L 51.332171 75.677061 
L 53.78562 78.115888 
L 56.239069 80.554716 
L 58.692519 82.993543 
L 61.145968 85.432371 
L 63.599417 87.871198 
L 66.052866 90.310026 
L 68.506315 92.748854 
L 70.959764 95.187681 
L 73.413214 97.626509 
L 75.866663 100.065336 
L 78.320112 102.504164 
L 80.773561 104.942991 
L 83.22701 107.381819 
L 85.680459 109.820646 
L 88.133909 112.259474 
L 90.587358 114.698301 
L 93.040807 117.137129 
L 95.494256 119.575957 
L 97.947705 122.014784 
L 100.401154 124.453612 
L 102.854604 126.892439 
L 105.308053 129.331267 
L 107.761502 131.770094 
L 110.214951 134.208922 
L 112.6684 136.647749 
L 115.121849 139.086577 
L 117.575299 141.525404 
L 120.028748 143.964232 
L 122.482197 146.403059 
L 124.935646 148.841887 
L 127.389095 151.280715 
L 129.842544 153.719542 
L 130.647442 154.519643 
" clip-path="url(#p6dc697e073)" style="fill: none; stroke: #000000; stroke-width: 2.5; stroke-linecap: square"/>
   </g>
   <g id="line2d_3">
    <defs>
     <path id="m3db439de9c" d="M 3 0 
L -3 -3 
L -3 3 
z
" style="stroke: #000000; stroke-linejoin: miter"/>
    </defs>
    <g>
     <use xlink:href="#m3db439de9c" x="245.4" y="123.721963" style="stroke: #000000; stroke-linejoin: miter"/>
    </g>
   </g>
   <g id="line2d_4">
    <defs>
     <path id="m1c69cd6b4c" d="M 0 -3 
L -3 3 
L 3 3 
z
" style="stroke: #000000; stroke-linejoin: miter"/>
    </defs>
    <g>
     <use xlink:href="#m1c69cd6b4c" x="26.797679" y="3" style="stroke: #000000; stroke-linejoin: miter"/>
    </g>
   </g>
   <g id="patch_2">
    <path d="M 26.797679 123.721963 
L 26.797679 3 
" style="fill: none; stroke: #000000; stroke-width: 1.5; stroke-linejoin: miter; stroke-linecap: square"/>
   </g>
   <g id="patch_3">
    <path d="M 26.797679 123.721963 
L 245.4 123.721963 
" style="fill: none; stroke: #000000; stroke-width: 1.5; stroke-linejoin: miter; stroke-linecap: square"/>
   </g>
  </g>
 </g>
 <defs>
  <clipPath id="p6dc697e073">
   <rect x="26.797679" y="3" width="218.602321" height="120.721963"/>
  </clipPath>
 </defs>
</svg>
