<?xml version="1.0" encoding="utf-8" standalone="no"?>
<!DOCTYPE svg PUBLIC "-//W3C//DTD SVG 1.1//EN"
  "http://www.w3.org/Graphics/SVG/1.1/DTD/svg11.dtd">
<svg xmlns:xlink="http://www.w3.org/1999/xlink" width="240.11994pt" height="49.467428pt" viewBox="0 0 240.11994 49.467428" xmlns="http://www.w3.org/2000/svg" version="1.1">
 <metadata>
  <rdf:RDF xmlns:dc="http://purl.org/dc/elements/1.1/" xmlns:cc="http://creativecommons.org/ns#" xmlns:rdf="http://www.w3.org/1999/02/22-rdf-syntax-ns#">
   <cc:Work>
    <dc:type rdf:resource="http://purl.org/dc/dcmitype/StillImage"/>
    <dc:date>2023-09-11T13:00:36.077616</dc:date>
    <dc:format>image/svg+xml</dc:format>
    <dc:creator>
     <cc:Agent>
      <dc:title>Matplotlib v3.6.3, https://matplotlib.org/</dc:title>
     </cc:Agent>
    </dc:creator>
   </cc:Work>
  </rdf:RDF>
 </metadata>
 <defs>
  <style type="text/css">*{stroke-linejoin: round; stroke-linecap: butt}</style>
 </defs>
 <g id="figure_1">
  <g id="axes_1">
   <g id="patch_1">
    <path d="M 173.331174 38.882881 
L 238.61994 38.882881 
L 238.61994 1.5 
L 173.331174 1.5 
z
" style="fill: #ffffff"/>
   </g>
   <g id="PolyCollection_1">
    <defs>
     <path id="m8305c7267b" d="M 173.331174 -47.967428 
L 173.331174 -33.014276 
L 174.063933 -32.259066 
L 174.796691 -31.503856 
L 175.529449 -30.748647 
L 176.262208 -29.993437 
L 176.994966 -29.238227 
L 177.727724 -28.483018 
L 178.460482 -27.727808 
L 179.193241 -26.972598 
L 179.925999 -26.217388 
L 180.658757 -25.462179 
L 181.391516 -24.706969 
L 182.124274 -23.951759 
L 182.857032 -23.19655 
L 183.589791 -22.44134 
L 184.322549 -21.68613 
L 185.055307 -20.93092 
L 185.788066 -20.175711 
L 186.520824 -19.420501 
L 187.253582 -18.665291 
L 187.986341 -18.061124 
L 188.719099 -18.061124 
L 189.451857 -18.061124 
L 190.184616 -18.061124 
L 190.917374 -18.061124 
L 191.650132 -18.061124 
L 192.38289 -18.061124 
L 193.115649 -18.061124 
L 193.848407 -18.061124 
L 194.581165 -18.061124 
L 195.313924 -18.061124 
L 196.046682 -18.061124 
L 196.77944 -18.061124 
L 197.512199 -18.061124 
L 198.244957 -18.061124 
L 198.977715 -18.061124 
L 199.710474 -18.061124 
L 200.443232 -18.061124 
L 201.17599 -18.061124 
L 201.908749 -18.061124 
L 202.641507 -18.061124 
L 203.374265 -18.061124 
L 204.107024 -18.061124 
L 204.839782 -18.061124 
L 205.57254 -18.061124 
L 206.305298 -18.061124 
L 207.038057 -18.061124 
L 207.770815 -18.061124 
L 208.503573 -18.061124 
L 209.236332 -18.061124 
L 209.96909 -18.061124 
L 210.701848 -18.061124 
L 211.434607 -18.061124 
L 212.167365 -18.061124 
L 212.900123 -18.061124 
L 213.632882 -18.061124 
L 214.36564 -18.061124 
L 215.098398 -18.061124 
L 215.831157 -18.061124 
L 216.563915 -18.061124 
L 217.296673 -18.061124 
L 218.029432 -18.061124 
L 218.76219 -18.061124 
L 219.494948 -18.061124 
L 220.227706 -18.061124 
L 220.960465 -18.061124 
L 221.693223 -18.061124 
L 222.425981 -18.061124 
L 223.15874 -18.061124 
L 223.891498 -18.061124 
L 224.624256 -18.061124 
L 225.357015 -18.061124 
L 226.089773 -18.061124 
L 226.822531 -18.061124 
L 227.55529 -18.061124 
L 228.288048 -18.061124 
L 229.020806 -18.061124 
L 229.753565 -18.061124 
L 230.486323 -18.061124 
L 231.219081 -18.061124 
L 231.95184 -18.061124 
L 232.684598 -18.061124 
L 233.417356 -18.061124 
L 234.150114 -18.061124 
L 234.882873 -18.061124 
L 235.615631 -18.061124 
L 236.348389 -18.061124 
L 237.081148 -18.061124 
L 237.813906 -18.061124 
L 238.546664 -18.061124 
L 239.279423 -18.061124 
L 240.012181 -18.061124 
L 240.744939 -18.061124 
L 241.477698 -18.061124 
L 242.210456 -18.061124 
L 242.943214 -18.061124 
L 243.675973 -18.061124 
L 244.408731 -18.061124 
L 245.141489 -18.061124 
L 245.874248 -18.061124 
L 245.874248 -47.967428 
L 245.874248 -47.967428 
L 245.141489 -47.967428 
L 244.408731 -47.967428 
L 243.675973 -47.967428 
L 242.943214 -47.967428 
L 242.210456 -47.967428 
L 241.477698 -47.967428 
L 240.744939 -47.967428 
L 240.012181 -47.967428 
L 239.279423 -47.967428 
L 238.546664 -47.967428 
L 237.813906 -47.967428 
L 237.081148 -47.967428 
L 236.348389 -47.967428 
L 235.615631 -47.967428 
L 234.882873 -47.967428 
L 234.150114 -47.967428 
L 233.417356 -47.967428 
L 232.684598 -47.967428 
L 231.95184 -47.967428 
L 231.219081 -47.967428 
L 230.486323 -47.967428 
L 229.753565 -47.967428 
L 229.020806 -47.967428 
L 228.288048 -47.967428 
L 227.55529 -47.967428 
L 226.822531 -47.967428 
L 226.089773 -47.967428 
L 225.357015 -47.967428 
L 224.624256 -47.967428 
L 223.891498 -47.967428 
L 223.15874 -47.967428 
L 222.425981 -47.967428 
L 221.693223 -47.967428 
L 220.960465 -47.967428 
L 220.227706 -47.967428 
L 219.494948 -47.967428 
L 218.76219 -47.967428 
L 218.029432 -47.967428 
L 217.296673 -47.967428 
L 216.563915 -47.967428 
L 215.831157 -47.967428 
L 215.098398 -47.967428 
L 214.36564 -47.967428 
L 213.632882 -47.967428 
L 212.900123 -47.967428 
L 212.167365 -47.967428 
L 211.434607 -47.967428 
L 210.701848 -47.967428 
L 209.96909 -47.967428 
L 209.236332 -47.967428 
L 208.503573 -47.967428 
L 207.770815 -47.967428 
L 207.038057 -47.967428 
L 206.305298 -47.967428 
L 205.57254 -47.967428 
L 204.839782 -47.967428 
L 204.107024 -47.967428 
L 203.374265 -47.967428 
L 202.641507 -47.967428 
L 201.908749 -47.967428 
L 201.17599 -47.967428 
L 200.443232 -47.967428 
L 199.710474 -47.967428 
L 198.977715 -47.967428 
L 198.244957 -47.967428 
L 197.512199 -47.967428 
L 196.77944 -47.967428 
L 196.046682 -47.967428 
L 195.313924 -47.967428 
L 194.581165 -47.967428 
L 193.848407 -47.967428 
L 193.115649 -47.967428 
L 192.38289 -47.967428 
L 191.650132 -47.967428 
L 190.917374 -47.967428 
L 190.184616 -47.967428 
L 189.451857 -47.967428 
L 188.719099 -47.967428 
L 187.986341 -47.967428 
L 187.253582 -47.967428 
L 186.520824 -47.967428 
L 185.788066 -47.967428 
L 185.055307 -47.967428 
L 184.322549 -47.967428 
L 183.589791 -47.967428 
L 182.857032 -47.967428 
L 182.124274 -47.967428 
L 181.391516 -47.967428 
L 180.658757 -47.967428 
L 179.925999 -47.967428 
L 179.193241 -47.967428 
L 178.460482 -47.967428 
L 177.727724 -47.967428 
L 176.994966 -47.967428 
L 176.262208 -47.967428 
L 175.529449 -47.967428 
L 174.796691 -47.967428 
L 174.063933 -47.967428 
L 173.331174 -47.967428 
z
" style="stroke: #ffffff; stroke-opacity: 0.2"/>
    </defs>
    <g clip-path="url(#pb03fdc1e63)">
     <use xlink:href="#m8305c7267b" x="0" y="49.467428" style="fill: #0000ff; fill-opacity: 0.2; stroke: #ffffff; stroke-opacity: 0.2"/>
    </g>
   </g>
   <g id="matplotlib.axis_1">
    <g id="text_1">
     <!-- $\beta$ -->
     <g transform="translate(203.599716 47.917682) scale(0.08 -0.08)">
      <defs>
       <path id="CMMI12-c" d="M 3622 3739 
C 3622 4131 3296 4544 2714 4544 
C 1888 4544 1363 3510 1197 2830 
L 186 -1152 
C 173 -1204 211 -1216 243 -1216 
C 288 -1216 320 -1210 326 -1178 
L 774 592 
C 838 231 1190 -64 1568 -64 
C 2483 -64 3347 657 3347 1618 
C 3347 1863 3290 2108 3155 2314 
C 3078 2437 2982 2527 2880 2599 
C 3341 2823 3622 3222 3622 3739 
z
M 2509 2605 
C 2406 2571 2304 2560 2182 2560 
C 2093 2560 2010 2553 1894 2588 
C 1958 2627 2054 2639 2189 2639 
C 2304 2639 2419 2627 2509 2605 
z
M 3290 3798 
C 3290 3438 3117 2915 2701 2684 
C 2579 2723 2413 2752 2272 2752 
C 2138 2752 1754 2765 1754 2582 
C 1754 2411 2106 2430 2214 2430 
C 2381 2430 2528 2469 2682 2514 
C 2886 2347 2976 2127 2976 1805 
C 2976 1431 2874 1128 2752 850 
C 2541 373 2042 64 1600 64 
C 1133 64 890 438 890 876 
C 890 934 890 1018 915 1115 
L 1331 2784 
C 1542 3641 2080 4413 2701 4413 
C 3162 4413 3290 4086 3290 3798 
z
" transform="scale(0.015625)"/>
      </defs>
      <use xlink:href="#CMMI12-c" transform="scale(0.996264)"/>
     </g>
    </g>
   </g>
   <g id="matplotlib.axis_2">
    <g id="text_2">
     <!-- $\mathit{C}$ -->
     <g transform="translate(168.281429 22.896613) rotate(-90) scale(0.08 -0.08)">
      <defs>
       <path id="CMSSI17-43" d="M 4384 4262 
C 4038 4428 3802 4480 3238 4480 
C 2042 4480 813 3084 813 1664 
C 813 729 1350 -64 2400 -64 
C 2931 -64 3213 70 3610 294 
L 3661 723 
C 3386 563 3110 352 2470 352 
C 1645 352 1357 1068 1357 1676 
C 1357 2835 2240 4070 3206 4070 
C 3654 4070 3962 3955 4186 3757 
L 4384 4262 
z
" transform="scale(0.015625)"/>
      </defs>
      <use xlink:href="#CMSSI17-43" transform="scale(0.996264)"/>
     </g>
    </g>
   </g>
   <g id="line2d_1">
    <path d="M 173.331174 31.406305 
L 174.063933 31.406305 
L 174.796691 31.406305 
L 175.529449 31.406305 
L 176.262208 31.406305 
L 176.994966 31.406305 
L 177.727724 31.406305 
L 178.460482 31.406305 
L 179.193241 31.406305 
L 179.925999 31.406305 
L 180.658757 31.406305 
L 181.391516 31.406305 
L 182.124274 31.406305 
L 182.857032 31.406305 
L 183.589791 31.406305 
L 184.322549 31.406305 
L 185.055307 31.406305 
L 185.788066 31.406305 
L 186.520824 31.406305 
L 187.253582 31.406305 
L 187.986341 31.406305 
L 188.719099 31.406305 
L 189.451857 31.406305 
L 190.184616 31.406305 
L 190.917374 31.406305 
L 191.650132 31.406305 
L 192.38289 31.406305 
L 193.115649 31.406305 
L 193.848407 31.406305 
L 194.581165 31.406305 
L 195.313924 31.406305 
L 196.046682 31.406305 
L 196.77944 31.406305 
L 197.512199 31.406305 
L 198.244957 31.406305 
L 198.977715 31.406305 
L 199.710474 31.406305 
L 200.443232 31.406305 
L 201.17599 31.406305 
L 201.908749 31.406305 
L 202.641507 31.406305 
L 203.374265 31.406305 
L 204.107024 31.406305 
L 204.839782 31.406305 
L 205.57254 31.406305 
L 206.305298 31.406305 
L 207.038057 31.406305 
L 207.770815 31.406305 
L 208.503573 31.406305 
L 209.236332 31.406305 
L 209.96909 31.406305 
L 210.701848 31.406305 
L 211.434607 31.406305 
L 212.167365 31.406305 
L 212.900123 31.406305 
L 213.632882 31.406305 
L 214.36564 31.406305 
L 215.098398 31.406305 
L 215.831157 31.406305 
L 216.563915 31.406305 
L 217.296673 31.406305 
L 218.029432 31.406305 
L 218.76219 31.406305 
L 219.494948 31.406305 
L 220.227706 31.406305 
L 220.960465 31.406305 
L 221.693223 31.406305 
L 222.425981 31.406305 
L 223.15874 31.406305 
L 223.891498 31.406305 
L 224.624256 31.406305 
L 225.357015 31.406305 
L 226.089773 31.406305 
L 226.822531 31.406305 
L 227.55529 31.406305 
L 228.288048 31.406305 
L 229.020806 31.406305 
L 229.753565 31.406305 
L 230.486323 31.406305 
L 231.219081 31.406305 
L 231.95184 31.406305 
L 232.684598 31.406305 
L 233.417356 31.406305 
L 234.150114 31.406305 
L 234.882873 31.406305 
L 235.615631 31.406305 
L 236.348389 31.406305 
L 237.081148 31.406305 
L 237.813906 31.406305 
L 238.546664 31.406305 
L 239.279423 31.406305 
L 240.012181 31.406305 
L 240.744939 31.406305 
L 241.11994 31.406305 
" clip-path="url(#pb03fdc1e63)" style="fill: none; stroke: #000000; stroke-linecap: square"/>
   </g>
   <g id="line2d_2">
    <path d="M 173.331174 16.453152 
L 174.063933 17.208362 
L 174.796691 17.963572 
L 175.529449 18.718781 
L 176.262208 19.473991 
L 176.994966 20.229201 
L 177.727724 20.984411 
L 178.460482 21.73962 
L 179.193241 22.49483 
L 179.925999 23.25004 
L 180.658757 24.005249 
L 181.391516 24.760459 
L 182.124274 25.515669 
L 182.857032 26.270879 
L 183.589791 27.026088 
L 184.322549 27.781298 
L 185.055307 28.536508 
L 185.788066 29.291717 
L 186.520824 30.046927 
L 187.253582 30.802137 
L 187.986341 31.557346 
L 188.719099 32.312556 
L 189.451857 33.067766 
L 190.184616 33.822976 
L 190.917374 34.578185 
L 191.650132 35.333395 
L 192.38289 36.088605 
L 193.115649 36.843814 
L 193.848407 37.599024 
L 194.581165 38.354234 
L 195.313924 39.109444 
L 196.046682 39.864653 
L 196.77944 40.619863 
L 197.512199 41.375073 
L 198.244957 42.130282 
L 198.977715 42.885492 
L 199.710474 43.640702 
L 200.443232 44.395912 
L 201.17599 45.151121 
L 201.908749 45.906331 
L 202.641507 46.661541 
L 203.374265 47.41675 
L 204.107024 48.17196 
L 204.839782 48.92717 
L 205.57254 49.68238 
L 206.305298 50.437589 
L 206.33425 50.467428 
" clip-path="url(#pb03fdc1e63)" style="fill: none; stroke: #000000; stroke-linecap: square"/>
   </g>
   <g id="line2d_3">
    <defs>
     <path id="m7b35199c3a" d="M 1.5 0 
L -1.5 -1.5 
L -1.5 1.5 
z
" style="stroke: #000000; stroke-width: 0.5; stroke-linejoin: miter"/>
    </defs>
    <g>
     <use xlink:href="#m7b35199c3a" x="238.61994" y="38.882881" style="stroke: #000000; stroke-width: 0.5; stroke-linejoin: miter"/>
    </g>
   </g>
   <g id="line2d_4">
    <defs>
     <path id="me68a3318ea" d="M 0 -1.5 
L -1.5 1.5 
L 1.5 1.5 
z
" style="stroke: #000000; stroke-width: 0.5; stroke-linejoin: miter"/>
    </defs>
    <g>
     <use xlink:href="#me68a3318ea" x="173.331174" y="1.5" style="stroke: #000000; stroke-width: 0.5; stroke-linejoin: miter"/>
    </g>
   </g>
   <g id="patch_2">
    <path d="M 173.331174 38.882881 
L 173.331174 1.5 
" style="fill: none; stroke: #000000; stroke-width: 0.5; stroke-linejoin: miter; stroke-linecap: square"/>
   </g>
   <g id="patch_3">
    <path d="M 173.331174 38.882881 
L 238.61994 38.882881 
" style="fill: none; stroke: #000000; stroke-width: 0.5; stroke-linejoin: miter; stroke-linecap: square"/>
   </g>
   <g id="text_3">
    <!-- Belief set -->
    <g transform="translate(192.192373 19.443783) scale(0.08 -0.08)">
     <defs>
      <path id="CMSS17-42" d="M 570 4416 
L 570 0 
L 2163 0 
C 3034 0 3667 575 3667 1200 
C 3667 1684 3251 2175 2502 2316 
C 3334 2559 3501 3039 3501 3311 
C 3501 3880 2874 4416 1997 4416 
L 570 4416 
z
M 1088 2496 
L 1088 4057 
L 1824 4057 
C 2483 4057 3002 3722 3002 3305 
C 3002 2925 2592 2496 1766 2496 
L 1088 2496 
z
M 1088 358 
L 1088 2105 
L 1939 2105 
C 2630 2105 3162 1678 3162 1206 
C 3162 772 2694 358 1984 358 
L 1088 358 
z
" transform="scale(0.015625)"/>
      <path id="CMSS17-65" d="M 2502 1375 
C 2502 1587 2490 2001 2285 2347 
C 2061 2713 1696 2816 1421 2816 
C 755 2816 192 2184 192 1363 
C 192 579 774 -64 1510 -64 
C 1798 -64 2150 19 2470 249 
C 2470 275 2458 414 2451 421 
C 2451 433 2432 629 2432 655 
C 2125 408 1773 326 1517 326 
C 1107 326 666 667 646 1375 
L 2502 1375 
z
M 698 1728 
C 781 2086 1062 2425 1421 2425 
C 1517 2425 1965 2412 2080 1728 
L 698 1728 
z
" transform="scale(0.015625)"/>
      <path id="CMSS17-6c" d="M 947 4416 
L 474 4416 
L 474 0 
L 947 0 
L 947 4416 
z
" transform="scale(0.015625)"/>
      <path id="CMSS17-69" d="M 979 4224 
L 442 4224 
L 442 3686 
L 979 3686 
L 979 4224 
z
M 947 2752 
L 474 2752 
L 474 0 
L 947 0 
L 947 2752 
z
" transform="scale(0.015625)"/>
      <path id="CMSS17-66" d="M 1075 2380 
L 1722 2380 
L 1722 2752 
L 1062 2752 
L 1062 3563 
C 1062 4013 1408 4089 1606 4089 
C 1670 4089 1850 4089 2080 4007 
L 2080 4428 
C 1933 4460 1754 4480 1613 4480 
C 1018 4480 602 3994 602 3366 
L 602 2752 
L 160 2752 
L 160 2380 
L 602 2380 
L 602 0 
L 1075 0 
L 1075 2380 
z
" transform="scale(0.015625)"/>
      <path id="CMSS17-73" d="M 2061 2623 
C 1683 2803 1389 2816 1197 2816 
C 742 2816 198 2655 198 2009 
C 198 1363 902 1222 1094 1183 
C 1389 1126 1715 1062 1715 742 
C 1715 339 1254 339 1171 339 
C 915 339 563 409 243 639 
L 166 211 
C 531 0 883 -64 1178 -64 
C 1965 -64 2163 416 2163 780 
C 2163 1094 1984 1305 1862 1401 
C 1651 1567 1574 1587 1050 1695 
C 960 1708 646 1779 646 2067 
C 646 2431 1050 2431 1139 2431 
C 1555 2431 1811 2303 1984 2207 
L 2061 2623 
z
" transform="scale(0.015625)"/>
      <path id="CMSS17-74" d="M 1069 2380 
L 1901 2380 
L 1901 2752 
L 1069 2752 
L 1069 3520 
L 614 3520 
L 614 2752 
L 109 2752 
L 109 2380 
L 602 2380 
L 602 751 
C 602 384 685 -64 1107 -64 
C 1427 -64 1722 25 2003 172 
L 1901 551 
C 1747 416 1562 339 1363 339 
C 1082 339 1069 699 1069 860 
L 1069 2380 
z
" transform="scale(0.015625)"/>
     </defs>
     <use xlink:href="#CMSS17-42" transform="scale(0.996264)"/>
     <use xlink:href="#CMSS17-65" transform="translate(62.33804 0) scale(0.996264)"/>
     <use xlink:href="#CMSS17-6c" transform="translate(103.976862 0) scale(0.996264)"/>
     <use xlink:href="#CMSS17-69" transform="translate(126.157585 0) scale(0.996264)"/>
     <use xlink:href="#CMSS17-65" transform="translate(148.338308 0) scale(0.996264)"/>
     <use xlink:href="#CMSS17-66" transform="translate(189.97713 0) scale(0.996264)"/>
     <use xlink:href="#CMSS17-73" transform="translate(249.832902 0) scale(0.996264)"/>
     <use xlink:href="#CMSS17-65" transform="translate(285.746444 0) scale(0.996264)"/>
     <use xlink:href="#CMSS17-74" transform="translate(327.385266 0) scale(0.996264)"/>
    </g>
   </g>
  </g>
  <g id="axes_2">
   <g id="patch_4">
    <path d="M 10.584547 38.882881 
L 75.873313 38.882881 
L 75.873313 1.5 
L 10.584547 1.5 
z
" style="fill: #ffffff"/>
   </g>
   <g id="PolyCollection_2">
    <defs>
     <path id="m3ec30662cd" d="M 10.584547 -33.014276 
L 10.584547 -3.107971 
L 11.317306 -3.107971 
L 12.050064 -3.107971 
L 12.782822 -3.107971 
L 13.515581 -3.107971 
L 14.248339 -3.107971 
L 14.981097 -3.107971 
L 15.713856 -3.107971 
L 16.446614 -3.107971 
L 17.179372 -3.107971 
L 17.912131 -3.107971 
L 18.644889 -3.107971 
L 19.377647 -3.107971 
L 20.110406 -3.107971 
L 20.843164 -3.107971 
L 21.575922 -3.107971 
L 22.308681 -3.107971 
L 23.041439 -3.107971 
L 23.774197 -3.107971 
L 24.506955 -3.107971 
L 25.239714 -3.107971 
L 25.972472 -3.107971 
L 26.70523 -3.107971 
L 27.437989 -3.107971 
L 28.170747 -3.107971 
L 28.903505 -3.107971 
L 29.636264 -3.107971 
L 30.369022 -3.107971 
L 31.10178 -3.107971 
L 31.834539 -3.107971 
L 32.567297 -3.107971 
L 33.300055 -3.107971 
L 34.032814 -3.107971 
L 34.765572 -3.107971 
L 35.49833 -3.107971 
L 36.231089 -3.107971 
L 36.963847 -3.107971 
L 37.696605 -3.107971 
L 38.429363 -3.107971 
L 39.162122 -3.107971 
L 39.89488 -3.107971 
L 40.627638 -3.107971 
L 41.360397 -3.107971 
L 42.093155 -3.107971 
L 42.825913 -3.107971 
L 43.558672 -3.107971 
L 44.29143 -3.107971 
L 45.024188 -3.107971 
L 45.756947 -3.107971 
L 46.489705 -3.107971 
L 47.222463 -3.107971 
L 47.955222 -3.107971 
L 48.68798 -3.107971 
L 49.420738 -3.107971 
L 50.153497 -3.107971 
L 50.886255 -3.107971 
L 51.619013 -3.107971 
L 52.351771 -3.107971 
L 53.08453 -3.107971 
L 53.817288 -3.107971 
L 54.550046 -3.107971 
L 55.282805 -3.107971 
L 56.015563 -3.107971 
L 56.748321 -3.107971 
L 57.48108 -3.107971 
L 58.213838 -3.107971 
L 58.946596 -3.107971 
L 59.679355 -3.107971 
L 60.412113 -3.107971 
L 61.144871 -3.107971 
L 61.87763 -3.107971 
L 62.610388 -3.107971 
L 63.343146 -3.107971 
L 64.075905 -3.107971 
L 64.808663 -3.107971 
L 65.541421 -3.107971 
L 66.274179 -3.107971 
L 67.006938 -3.107971 
L 67.739696 -3.107971 
L 68.472454 -3.107971 
L 69.205213 -3.107971 
L 69.937971 -3.107971 
L 70.670729 -3.107971 
L 71.403488 -3.107971 
L 72.136246 -3.107971 
L 72.869004 -3.107971 
L 73.601763 -3.107971 
L 74.334521 -3.107971 
L 75.067279 -3.107971 
L 75.800038 -3.107971 
L 76.532796 -3.107971 
L 77.265554 -3.107971 
L 77.998313 -3.107971 
L 78.731071 -3.107971 
L 79.463829 -3.107971 
L 80.196587 -3.107971 
L 80.929346 -3.107971 
L 81.662104 -3.107971 
L 82.394862 -3.107971 
L 83.127621 -3.107971 
L 83.127621 -33.014276 
L 83.127621 -33.014276 
L 82.394862 -33.014276 
L 81.662104 -33.014276 
L 80.929346 -33.014276 
L 80.196587 -33.014276 
L 79.463829 -33.014276 
L 78.731071 -33.014276 
L 77.998313 -33.014276 
L 77.265554 -33.014276 
L 76.532796 -33.014276 
L 75.800038 -33.014276 
L 75.067279 -33.014276 
L 74.334521 -33.014276 
L 73.601763 -33.014276 
L 72.869004 -33.014276 
L 72.136246 -33.014276 
L 71.403488 -33.014276 
L 70.670729 -33.014276 
L 69.937971 -33.014276 
L 69.205213 -33.014276 
L 68.472454 -33.014276 
L 67.739696 -33.014276 
L 67.006938 -33.014276 
L 66.274179 -33.014276 
L 65.541421 -33.014276 
L 64.808663 -33.014276 
L 64.075905 -33.014276 
L 63.343146 -33.014276 
L 62.610388 -33.014276 
L 61.87763 -33.014276 
L 61.144871 -33.014276 
L 60.412113 -33.014276 
L 59.679355 -33.014276 
L 58.946596 -33.014276 
L 58.213838 -33.014276 
L 57.48108 -33.014276 
L 56.748321 -33.014276 
L 56.015563 -33.014276 
L 55.282805 -33.014276 
L 54.550046 -33.014276 
L 53.817288 -33.014276 
L 53.08453 -33.014276 
L 52.351771 -33.014276 
L 51.619013 -33.014276 
L 50.886255 -33.014276 
L 50.153497 -33.014276 
L 49.420738 -33.014276 
L 48.68798 -33.014276 
L 47.955222 -33.014276 
L 47.222463 -33.014276 
L 46.489705 -33.014276 
L 45.756947 -33.014276 
L 45.024188 -33.014276 
L 44.29143 -33.014276 
L 43.558672 -33.014276 
L 42.825913 -33.014276 
L 42.093155 -33.014276 
L 41.360397 -33.014276 
L 40.627638 -33.014276 
L 39.89488 -33.014276 
L 39.162122 -33.014276 
L 38.429363 -33.014276 
L 37.696605 -33.014276 
L 36.963847 -33.014276 
L 36.231089 -33.014276 
L 35.49833 -33.014276 
L 34.765572 -33.014276 
L 34.032814 -33.014276 
L 33.300055 -33.014276 
L 32.567297 -33.014276 
L 31.834539 -33.014276 
L 31.10178 -33.014276 
L 30.369022 -33.014276 
L 29.636264 -33.014276 
L 28.903505 -33.014276 
L 28.170747 -33.014276 
L 27.437989 -33.014276 
L 26.70523 -33.014276 
L 25.972472 -33.014276 
L 25.239714 -33.014276 
L 24.506955 -33.014276 
L 23.774197 -33.014276 
L 23.041439 -33.014276 
L 22.308681 -33.014276 
L 21.575922 -33.014276 
L 20.843164 -33.014276 
L 20.110406 -33.014276 
L 19.377647 -33.014276 
L 18.644889 -33.014276 
L 17.912131 -33.014276 
L 17.179372 -33.014276 
L 16.446614 -33.014276 
L 15.713856 -33.014276 
L 14.981097 -33.014276 
L 14.248339 -33.014276 
L 13.515581 -33.014276 
L 12.782822 -33.014276 
L 12.050064 -33.014276 
L 11.317306 -33.014276 
L 10.584547 -33.014276 
z
" style="stroke: #0000ff; stroke-opacity: 0.2"/>
    </defs>
    <g clip-path="url(#p53da79c262)">
     <use xlink:href="#m3ec30662cd" x="0" y="49.467428" style="fill: #0000ff; fill-opacity: 0.2; stroke: #0000ff; stroke-opacity: 0.2"/>
    </g>
   </g>
   <g id="matplotlib.axis_3">
    <g id="text_4">
     <!-- $\beta$ -->
     <g transform="translate(40.853089 47.917682) scale(0.08 -0.08)">
      <use xlink:href="#CMMI12-c" transform="scale(0.996264)"/>
     </g>
    </g>
   </g>
   <g id="matplotlib.axis_4">
    <g id="text_5">
     <!-- $\mathit{C}$ -->
     <g transform="translate(5.534802 22.896613) rotate(-90) scale(0.08 -0.08)">
      <use xlink:href="#CMSSI17-43" transform="scale(0.996264)"/>
     </g>
    </g>
   </g>
   <g id="line2d_5">
    <path d="M 10.584547 16.453152 
L 11.317306 16.453152 
L 12.050064 16.453152 
L 12.782822 16.453152 
L 13.515581 16.453152 
L 14.248339 16.453152 
L 14.981097 16.453152 
L 15.713856 16.453152 
L 16.446614 16.453152 
L 17.179372 16.453152 
L 17.912131 16.453152 
L 18.644889 16.453152 
L 19.377647 16.453152 
L 20.110406 16.453152 
L 20.843164 16.453152 
L 21.575922 16.453152 
L 22.308681 16.453152 
L 23.041439 16.453152 
L 23.774197 16.453152 
L 24.506955 16.453152 
L 25.239714 16.453152 
L 25.972472 16.453152 
L 26.70523 16.453152 
L 27.437989 16.453152 
L 28.170747 16.453152 
L 28.903505 16.453152 
L 29.636264 16.453152 
L 30.369022 16.453152 
L 31.10178 16.453152 
L 31.834539 16.453152 
L 32.567297 16.453152 
L 33.300055 16.453152 
L 34.032814 16.453152 
L 34.765572 16.453152 
L 35.49833 16.453152 
L 36.231089 16.453152 
L 36.963847 16.453152 
L 37.696605 16.453152 
L 38.429363 16.453152 
L 39.162122 16.453152 
L 39.89488 16.453152 
L 40.627638 16.453152 
L 41.360397 16.453152 
L 42.093155 16.453152 
L 42.825913 16.453152 
L 43.558672 16.453152 
L 44.29143 16.453152 
L 45.024188 16.453152 
L 45.756947 16.453152 
L 46.489705 16.453152 
L 47.222463 16.453152 
L 47.955222 16.453152 
L 48.68798 16.453152 
L 49.420738 16.453152 
L 50.153497 16.453152 
L 50.886255 16.453152 
L 51.619013 16.453152 
L 52.351771 16.453152 
L 53.08453 16.453152 
L 53.817288 16.453152 
L 54.550046 16.453152 
L 55.282805 16.453152 
L 56.015563 16.453152 
L 56.748321 16.453152 
L 57.48108 16.453152 
L 58.213838 16.453152 
L 58.946596 16.453152 
L 59.679355 16.453152 
L 60.412113 16.453152 
L 61.144871 16.453152 
L 61.87763 16.453152 
L 62.610388 16.453152 
L 63.343146 16.453152 
L 64.075905 16.453152 
L 64.808663 16.453152 
L 65.541421 16.453152 
L 66.274179 16.453152 
L 67.006938 16.453152 
L 67.739696 16.453152 
L 68.472454 16.453152 
L 69.205213 16.453152 
L 69.937971 16.453152 
L 70.670729 16.453152 
L 71.403488 16.453152 
L 72.136246 16.453152 
L 72.869004 16.453152 
L 73.601763 16.453152 
L 74.334521 16.453152 
L 75.067279 16.453152 
L 75.800038 16.453152 
L 76.532796 16.453152 
L 77.265554 16.453152 
L 77.998313 16.453152 
L 78.731071 16.453152 
L 79.463829 16.453152 
L 80.196587 16.453152 
L 80.929346 16.453152 
L 81.662104 16.453152 
L 82.394862 16.453152 
L 83.127621 16.453152 
" clip-path="url(#p53da79c262)" style="fill: none; stroke: #000000; stroke-linecap: square"/>
   </g>
   <g id="line2d_6">
    <g>
     <use xlink:href="#m7b35199c3a" x="75.873313" y="38.882881" style="stroke: #000000; stroke-width: 0.5; stroke-linejoin: miter"/>
    </g>
   </g>
   <g id="line2d_7">
    <g>
     <use xlink:href="#me68a3318ea" x="10.584547" y="1.5" style="stroke: #000000; stroke-width: 0.5; stroke-linejoin: miter"/>
    </g>
   </g>
   <g id="patch_5">
    <path d="M 10.584547 38.882881 
L 10.584547 1.5 
" style="fill: none; stroke: #000000; stroke-width: 0.5; stroke-linejoin: miter; stroke-linecap: square"/>
   </g>
   <g id="patch_6">
    <path d="M 10.584547 38.882881 
L 75.873313 38.882881 
" style="fill: none; stroke: #000000; stroke-width: 0.5; stroke-linejoin: miter; stroke-linecap: square"/>
   </g>
   <g id="text_6">
    <!-- $qdel&gt;\mathit{D}$ -->
    <g transform="translate(29.445747 8.976576) scale(0.08 -0.08)">
     <defs>
      <path id="CMSSI17-71" d="M 3206 2816 
L 2733 2816 
L 2650 2425 
C 2566 2559 2336 2816 1914 2816 
C 1190 2816 454 1920 454 954 
C 454 475 678 -64 1222 -64 
C 1440 -64 1786 -7 2189 300 
L 1862 -1280 
L 2349 -1280 
L 3206 2816 
z
M 2317 851 
C 2291 747 2291 734 2227 669 
C 2016 423 1779 326 1574 326 
C 1216 326 960 630 960 1097 
C 960 1816 1542 2412 2074 2412 
C 2195 2412 2323 2373 2413 2250 
C 2522 2101 2534 1913 2534 1894 
C 2534 1868 2534 1849 2522 1797 
L 2317 851 
z
" transform="scale(0.015625)"/>
      <path id="CMSSI17-64" d="M 3558 4416 
L 3085 4416 
L 2669 2495 
C 2362 2790 1997 2816 1850 2816 
C 1146 2816 461 1894 461 954 
C 461 410 723 -64 1229 -64 
C 1389 -64 1773 -26 2195 307 
L 2125 -13 
L 2611 -13 
L 3558 4416 
z
M 2285 734 
C 2189 605 1926 326 1574 326 
C 1382 326 954 410 954 1039 
C 954 1777 1434 2425 2074 2425 
C 2355 2425 2502 2263 2573 2120 
L 2285 734 
z
" transform="scale(0.015625)"/>
      <path id="CMSSI17-65" d="M 2803 1375 
C 2842 1542 2861 1715 2861 1890 
C 2861 2655 2374 2816 2022 2816 
C 1229 2816 454 1936 454 1040 
C 454 351 922 -64 1498 -64 
C 1760 -64 2118 0 2528 249 
L 2573 655 
C 2144 358 1747 326 1594 326 
C 1165 326 915 661 915 1104 
C 915 1375 934 1375 1062 1375 
L 2803 1375 
z
M 1069 1728 
C 1274 2158 1632 2425 1933 2425 
C 2458 2425 2458 1884 2458 1728 
L 1069 1728 
z
" transform="scale(0.015625)"/>
      <path id="CMSSI17-6c" d="M 1894 4416 
L 1421 4416 
L 474 0 
L 947 0 
L 1894 4416 
z
" transform="scale(0.015625)"/>
      <path id="CMMI12-3e" d="M 4218 1460 
C 4339 1519 4346 1557 4346 1603 
C 4346 1641 4333 1687 4218 1738 
L 755 3347 
C 672 3385 659 3392 646 3392 
C 570 3392 525 3327 525 3276 
C 525 3199 576 3173 659 3134 
L 3949 1603 
L 653 65 
C 525 7 525 -39 525 -77 
C 525 -128 570 -192 646 -192 
C 659 -192 666 -186 755 -148 
L 4218 1460 
z
" transform="scale(0.015625)"/>
      <path id="CMSSI17-44" d="M 1517 4416 
L 570 0 
L 2150 0 
C 3334 0 4525 1286 4525 2741 
C 4525 3714 3955 4416 3091 4416 
L 1517 4416 
z
M 1965 4057 
L 2867 4057 
C 3552 4057 4000 3561 4000 2735 
C 4000 1540 3181 358 2080 358 
L 1171 358 
L 1965 4057 
z
" transform="scale(0.015625)"/>
     </defs>
     <use xlink:href="#CMSSI17-71" transform="scale(0.996264)"/>
     <use xlink:href="#CMSSI17-64" transform="translate(48.204943 0) scale(0.996264)"/>
     <use xlink:href="#CMSSI17-65" transform="translate(96.409886 0) scale(0.996264)"/>
     <use xlink:href="#CMSSI17-6c" transform="translate(138.048708 0) scale(0.996264)"/>
     <use xlink:href="#CMMI12-3e" transform="translate(197.884733 0) scale(0.996264)"/>
     <use xlink:href="#CMSSI17-44" transform="translate(301.430837 0) scale(0.996264)"/>
    </g>
   </g>
  </g>
  <g id="axes_3">
   <g id="patch_7">
    <path d="M 91.957861 38.882881 
L 157.246627 38.882881 
L 157.246627 1.5 
L 91.957861 1.5 
z
" style="fill: #ffffff"/>
   </g>
   <g id="PolyCollection_3">
    <path d="M 91.957861 8.976576 
L 91.957861 46.359457 
L 92.690619 46.359457 
L 93.423377 46.359457 
L 94.156136 46.359457 
L 94.888894 46.359457 
L 95.621652 46.359457 
L 96.354411 46.359457 
L 97.087169 46.359457 
L 97.819927 46.359457 
L 98.552686 46.359457 
L 99.285444 46.359457 
L 100.018202 46.359457 
L 100.750961 46.359457 
L 101.483719 46.359457 
L 102.216477 46.359457 
L 102.949236 46.359457 
L 103.681994 46.359457 
L 104.414752 46.359457 
L 105.147511 46.359457 
L 105.880269 46.359457 
L 106.613027 46.359457 
L 107.345785 46.359457 
L 108.078544 46.359457 
L 108.811302 46.359457 
L 109.54406 46.359457 
L 110.276819 46.359457 
L 111.009577 46.359457 
L 111.742335 46.359457 
L 112.475094 46.359457 
L 113.207852 46.359457 
L 113.94061 46.359457 
L 114.673369 46.359457 
L 115.406127 46.359457 
L 116.138885 46.359457 
L 116.871644 46.359457 
L 117.604402 46.359457 
L 118.33716 46.359457 
L 119.069919 46.359457 
L 119.802677 46.359457 
L 120.535435 46.359457 
L 121.268193 46.359457 
L 122.000952 46.359457 
L 122.73371 46.359457 
L 123.466468 46.359457 
L 124.199227 46.359457 
L 124.931985 46.359457 
L 125.664743 46.359457 
L 126.397502 46.359457 
L 127.13026 46.359457 
L 127.863018 46.359457 
L 128.595777 46.359457 
L 129.328535 46.359457 
L 130.061293 46.359457 
L 130.794052 46.359457 
L 131.52681 46.359457 
L 132.259568 46.359457 
L 132.992327 46.359457 
L 133.725085 46.359457 
L 134.457843 46.359457 
L 135.190602 46.359457 
L 135.92336 46.359457 
L 136.656118 46.359457 
L 137.388876 46.359457 
L 138.121635 46.359457 
L 138.854393 46.359457 
L 139.587151 46.359457 
L 140.31991 46.359457 
L 141.052668 46.359457 
L 141.785426 46.359457 
L 142.518185 46.359457 
L 143.250943 46.359457 
L 143.983701 46.359457 
L 144.71646 46.359457 
L 145.449218 46.359457 
L 146.181976 46.359457 
L 146.914735 46.359457 
L 147.647493 46.359457 
L 148.380251 46.359457 
L 149.11301 46.359457 
L 149.845768 46.359457 
L 150.578526 46.359457 
L 151.311284 46.359457 
L 152.044043 46.359457 
L 152.776801 46.359457 
L 153.509559 46.359457 
L 154.242318 46.359457 
L 154.975076 46.359457 
L 155.707834 46.359457 
L 156.440593 46.359457 
L 157.173351 46.359457 
L 157.906109 46.359457 
L 158.638868 46.359457 
L 159.371626 46.359457 
L 160.104384 46.359457 
L 160.837143 46.359457 
L 161.569901 46.359457 
L 162.302659 46.359457 
L 163.035418 46.359457 
L 163.768176 46.359457 
L 164.500934 46.359457 
L 164.500934 83.742338 
L 164.500934 83.742338 
L 163.768176 82.987128 
L 163.035418 82.231918 
L 162.302659 81.476708 
L 161.569901 80.721499 
L 160.837143 79.966289 
L 160.104384 79.211079 
L 159.371626 78.45587 
L 158.638868 77.70066 
L 157.906109 76.94545 
L 157.173351 76.19024 
L 156.440593 75.435031 
L 155.707834 74.679821 
L 154.975076 73.924611 
L 154.242318 73.169402 
L 153.509559 72.414192 
L 152.776801 71.658982 
L 152.044043 70.903772 
L 151.311284 70.148563 
L 150.578526 69.393353 
L 149.845768 68.638143 
L 149.11301 67.882934 
L 148.380251 67.127724 
L 147.647493 66.372514 
L 146.914735 65.617304 
L 146.181976 64.862095 
L 145.449218 64.106885 
L 144.71646 63.351675 
L 143.983701 62.596466 
L 143.250943 61.841256 
L 142.518185 61.086046 
L 141.785426 60.330836 
L 141.052668 59.575627 
L 140.31991 58.820417 
L 139.587151 58.065207 
L 138.854393 57.309998 
L 138.121635 56.554788 
L 137.388876 55.799578 
L 136.656118 55.044369 
L 135.92336 54.289159 
L 135.190602 53.533949 
L 134.457843 52.778739 
L 133.725085 52.02353 
L 132.992327 51.26832 
L 132.259568 50.51311 
L 131.52681 49.757901 
L 130.794052 49.002691 
L 130.061293 48.247481 
L 129.328535 47.492271 
L 128.595777 46.737062 
L 127.863018 45.981852 
L 127.13026 45.226642 
L 126.397502 44.471433 
L 125.664743 43.716223 
L 124.931985 42.961013 
L 124.199227 42.205803 
L 123.466468 41.450594 
L 122.73371 40.695384 
L 122.000952 39.940174 
L 121.268193 39.184965 
L 120.535435 38.429755 
L 119.802677 37.674545 
L 119.069919 36.919335 
L 118.33716 36.164126 
L 117.604402 35.408916 
L 116.871644 34.653706 
L 116.138885 33.898497 
L 115.406127 33.143287 
L 114.673369 32.388077 
L 113.94061 31.632867 
L 113.207852 30.877658 
L 112.475094 30.122448 
L 111.742335 29.367238 
L 111.009577 28.612029 
L 110.276819 27.856819 
L 109.54406 27.101609 
L 108.811302 26.346399 
L 108.078544 25.59119 
L 107.345785 24.83598 
L 106.613027 24.08077 
L 105.880269 23.325561 
L 105.147511 22.570351 
L 104.414752 21.815141 
L 103.681994 21.059932 
L 102.949236 20.304722 
L 102.216477 19.549512 
L 101.483719 18.794302 
L 100.750961 18.039093 
L 100.018202 17.283883 
L 99.285444 16.528673 
L 98.552686 15.773464 
L 97.819927 15.018254 
L 97.087169 14.263044 
L 96.354411 13.507834 
L 95.621652 12.752625 
L 94.888894 11.997415 
L 94.156136 11.242205 
L 93.423377 10.486996 
L 92.690619 9.731786 
L 91.957861 8.976576 
z
" clip-path="url(#p0f0eef314e)" style="fill: #0000ff; fill-opacity: 0.2; stroke: #0000ff; stroke-opacity: 0.2"/>
   </g>
   <g id="matplotlib.axis_5">
    <g id="text_7">
     <!-- $\beta$ -->
     <g transform="translate(122.226403 47.917682) scale(0.08 -0.08)">
      <use xlink:href="#CMMI12-c" transform="scale(0.996264)"/>
     </g>
    </g>
   </g>
   <g id="matplotlib.axis_6">
    <g id="text_8">
     <!-- $\mathit{C}$ -->
     <g transform="translate(86.908115 22.896613) rotate(-90) scale(0.08 -0.08)">
      <use xlink:href="#CMSSI17-43" transform="scale(0.996264)"/>
     </g>
    </g>
   </g>
   <g id="line2d_8">
    <path d="M 91.957861 8.976576 
L 92.690619 9.731786 
L 93.423377 10.486996 
L 94.156136 11.242205 
L 94.888894 11.997415 
L 95.621652 12.752625 
L 96.354411 13.507834 
L 97.087169 14.263044 
L 97.819927 15.018254 
L 98.552686 15.773464 
L 99.285444 16.528673 
L 100.018202 17.283883 
L 100.750961 18.039093 
L 101.483719 18.794302 
L 102.216477 19.549512 
L 102.949236 20.304722 
L 103.681994 21.059932 
L 104.414752 21.815141 
L 105.147511 22.570351 
L 105.880269 23.325561 
L 106.613027 24.08077 
L 107.345785 24.83598 
L 108.078544 25.59119 
L 108.811302 26.346399 
L 109.54406 27.101609 
L 110.276819 27.856819 
L 111.009577 28.612029 
L 111.742335 29.367238 
L 112.475094 30.122448 
L 113.207852 30.877658 
L 113.94061 31.632867 
L 114.673369 32.388077 
L 115.406127 33.143287 
L 116.138885 33.898497 
L 116.871644 34.653706 
L 117.604402 35.408916 
L 118.33716 36.164126 
L 119.069919 36.919335 
L 119.802677 37.674545 
L 120.535435 38.429755 
L 121.268193 39.184965 
L 122.000952 39.940174 
L 122.73371 40.695384 
L 123.466468 41.450594 
L 124.199227 42.205803 
L 124.931985 42.961013 
L 125.664743 43.716223 
L 126.397502 44.471433 
L 127.13026 45.226642 
L 127.863018 45.981852 
L 128.595777 46.737062 
L 129.328535 47.492271 
L 130.061293 48.247481 
L 130.794052 49.002691 
L 131.52681 49.757901 
L 132.215244 50.467428 
" clip-path="url(#p0f0eef314e)" style="fill: none; stroke: #000000; stroke-linecap: square"/>
   </g>
   <g id="line2d_9">
    <g>
     <use xlink:href="#m7b35199c3a" x="157.246627" y="38.882881" style="stroke: #000000; stroke-width: 0.5; stroke-linejoin: miter"/>
    </g>
   </g>
   <g id="line2d_10">
    <g>
     <use xlink:href="#me68a3318ea" x="91.957861" y="1.5" style="stroke: #000000; stroke-width: 0.5; stroke-linejoin: miter"/>
    </g>
   </g>
   <g id="patch_8">
    <path d="M 91.957861 38.882881 
L 91.957861 1.5 
" style="fill: none; stroke: #000000; stroke-width: 0.5; stroke-linejoin: miter; stroke-linecap: square"/>
   </g>
   <g id="patch_9">
    <path d="M 91.957861 38.882881 
L 157.246627 38.882881 
" style="fill: none; stroke: #000000; stroke-width: 0.5; stroke-linejoin: miter; stroke-linecap: square"/>
   </g>
   <g id="text_9">
    <!-- Loss -->
    <g transform="translate(118.073367 8.976576) scale(0.08 -0.08)">
     <defs>
      <path id="CMSS17-4c" d="M 1670 416 
C 1594 416 1517 409 1440 409 
L 1101 409 
L 1101 4416 
L 563 4416 
L 563 0 
L 3002 0 
L 3002 416 
L 1670 416 
z
" transform="scale(0.015625)"/>
      <path id="CMSS17-6f" d="M 2829 1356 
C 2829 2175 2221 2816 1504 2816 
C 768 2816 173 2156 173 1356 
C 173 544 787 -64 1498 -64 
C 2227 -64 2829 563 2829 1356 
z
M 1504 339 
C 1050 339 659 710 659 1407 
C 659 2150 1114 2425 1498 2425 
C 1914 2425 2342 2124 2342 1407 
C 2342 684 1926 339 1504 339 
z
" transform="scale(0.015625)"/>
     </defs>
     <use xlink:href="#CMSS17-4c" transform="scale(0.996264)"/>
     <use xlink:href="#CMSS17-6f" transform="translate(50.687105 0) scale(0.996264)"/>
     <use xlink:href="#CMSS17-73" transform="translate(97.530729 0) scale(0.996264)"/>
     <use xlink:href="#CMSS17-73" transform="translate(133.444271 0) scale(0.996264)"/>
    </g>
   </g>
  </g>
 </g>
 <defs>
  <clipPath id="pb03fdc1e63">
   <rect x="173.331174" y="1.5" width="65.288766" height="37.382881"/>
  </clipPath>
  <clipPath id="p53da79c262">
   <rect x="10.584547" y="1.5" width="65.288766" height="37.382881"/>
  </clipPath>
  <clipPath id="p0f0eef314e">
   <rect x="91.957861" y="1.5" width="65.288766" height="37.382881"/>
  </clipPath>
 </defs>
</svg>
