<?xml version="1.0" encoding="utf-8" standalone="no"?>
<!DOCTYPE svg PUBLIC "-//W3C//DTD SVG 1.1//EN"
  "http://www.w3.org/Graphics/SVG/1.1/DTD/svg11.dtd">
<svg xmlns:xlink="http://www.w3.org/1999/xlink" width="80.03998pt" height="49.467428pt" viewBox="0 0 80.03998 49.467428" xmlns="http://www.w3.org/2000/svg" version="1.1">
 <metadata>
  <rdf:RDF xmlns:dc="http://purl.org/dc/elements/1.1/" xmlns:cc="http://creativecommons.org/ns#" xmlns:rdf="http://www.w3.org/1999/02/22-rdf-syntax-ns#">
   <cc:Work>
    <dc:type rdf:resource="http://purl.org/dc/dcmitype/StillImage"/>
    <dc:date>2023-09-04T17:17:46.484608</dc:date>
    <dc:format>image/svg+xml</dc:format>
    <dc:creator>
     <cc:Agent>
      <dc:title>Matplotlib v3.6.3, https://matplotlib.org/</dc:title>
     </cc:Agent>
    </dc:creator>
   </cc:Work>
  </rdf:RDF>
 </metadata>
 <defs>
  <style type="text/css">*{stroke-linejoin: round; stroke-linecap: butt}</style>
 </defs>
 <g id="figure_1">
  <g id="axes_1">
   <g id="patch_1">
    <path d="M 10.584547 38.882881 
L 78.53998 38.882881 
L 78.53998 1.5 
L 10.584547 1.5 
z
" style="fill: #ffffff"/>
   </g>
   <g id="PolyCollection_1">
    <path d="M 10.584547 61.312609 
L 10.584547 38.882881 
L 11.347235 38.295495 
L 12.109922 37.70811 
L 12.872609 37.120725 
L 13.635296 36.533339 
L 14.397984 35.945954 
L 15.160671 35.358569 
L 15.923358 34.771183 
L 16.686045 34.183798 
L 17.448733 33.596413 
L 18.21142 33.009027 
L 18.974107 32.421642 
L 19.736794 31.834257 
L 20.499482 31.246871 
L 21.262169 30.659486 
L 22.024856 30.072101 
L 22.787543 29.484715 
L 23.55023 28.89733 
L 24.312918 28.309945 
L 25.075605 27.722559 
L 25.838292 27.135174 
L 26.600979 26.547789 
L 27.363667 25.960403 
L 28.126354 25.373018 
L 28.889041 24.785633 
L 29.651728 24.198247 
L 30.414416 23.610862 
L 31.177103 23.023477 
L 31.93979 22.436091 
L 32.702477 21.848706 
L 33.465164 21.261321 
L 34.227852 20.673935 
L 34.990539 20.08655 
L 35.753226 19.499165 
L 36.515913 18.911779 
L 37.278601 18.324394 
L 38.041288 17.737009 
L 38.803975 17.149623 
L 39.566662 16.562238 
L 40.32935 15.974853 
L 41.092037 15.387467 
L 41.854724 14.800082 
L 42.617411 14.212697 
L 43.380099 13.625311 
L 44.142786 13.037926 
L 44.905473 12.450541 
L 45.66816 11.863155 
L 46.430847 11.27577 
L 47.193535 10.688385 
L 47.956222 10.100999 
L 48.718909 9.513614 
L 49.481596 8.926229 
L 50.244284 8.338843 
L 51.006971 7.751458 
L 51.769658 7.164073 
L 52.532345 6.576688 
L 53.295033 5.989302 
L 54.05772 5.401917 
L 54.820407 4.814532 
L 55.583094 4.227146 
L 56.345782 3.639761 
L 57.108469 3.052376 
L 57.871156 2.46499 
L 58.633843 1.877605 
L 59.39653 1.29022 
L 60.159218 0.702834 
L 60.921905 0.115449 
L 61.684592 -0.471936 
L 62.447279 -1.059322 
L 63.209967 -1.646707 
L 63.972654 -2.234092 
L 64.735341 -2.821478 
L 65.498028 -3.408863 
L 66.260716 -3.996248 
L 67.023403 -4.583634 
L 67.78609 -5.171019 
L 68.548777 -5.758404 
L 69.311465 -6.34579 
L 70.074152 -6.933175 
L 70.836839 -7.52056 
L 71.599526 -8.107946 
L 72.362213 -8.695331 
L 73.124901 -9.282716 
L 73.887588 -9.870102 
L 74.650275 -10.457487 
L 75.412962 -11.044872 
L 76.17565 -11.632258 
L 76.938337 -12.219643 
L 77.701024 -12.807028 
L 78.463711 -13.394414 
L 79.226399 -13.981799 
L 79.989086 -14.569184 
L 80.751773 -15.15657 
L 81.51446 -15.743955 
L 82.277148 -16.33134 
L 83.039835 -16.918726 
L 83.802522 -17.506111 
L 84.565209 -18.093496 
L 85.327896 -18.680882 
L 86.090584 -19.268267 
L 86.090584 3.161461 
L 86.090584 3.161461 
L 85.327896 3.748847 
L 84.565209 4.336232 
L 83.802522 4.923617 
L 83.039835 5.511003 
L 82.277148 6.098388 
L 81.51446 6.685773 
L 80.751773 7.273159 
L 79.989086 7.860544 
L 79.226399 8.447929 
L 78.463711 9.035315 
L 77.701024 9.6227 
L 76.938337 10.210085 
L 76.17565 10.797471 
L 75.412962 11.384856 
L 74.650275 11.972241 
L 73.887588 12.559627 
L 73.124901 13.147012 
L 72.362213 13.734397 
L 71.599526 14.321783 
L 70.836839 14.909168 
L 70.074152 15.496553 
L 69.311465 16.083939 
L 68.548777 16.671324 
L 67.78609 17.258709 
L 67.023403 17.846095 
L 66.260716 18.43348 
L 65.498028 19.020865 
L 64.735341 19.608251 
L 63.972654 20.195636 
L 63.209967 20.783021 
L 62.447279 21.370407 
L 61.684592 21.957792 
L 60.921905 22.545177 
L 60.159218 23.132563 
L 59.39653 23.719948 
L 58.633843 24.307333 
L 57.871156 24.894719 
L 57.108469 25.482104 
L 56.345782 26.069489 
L 55.583094 26.656875 
L 54.820407 27.24426 
L 54.05772 27.831645 
L 53.295033 28.419031 
L 52.532345 29.006416 
L 51.769658 29.593801 
L 51.006971 30.181187 
L 50.244284 30.768572 
L 49.481596 31.355957 
L 48.718909 31.943343 
L 47.956222 32.530728 
L 47.193535 33.118113 
L 46.430847 33.705499 
L 45.66816 34.292884 
L 44.905473 34.880269 
L 44.142786 35.467655 
L 43.380099 36.05504 
L 42.617411 36.642425 
L 41.854724 37.229811 
L 41.092037 37.817196 
L 40.32935 38.404581 
L 39.566662 38.991967 
L 38.803975 39.579352 
L 38.041288 40.166737 
L 37.278601 40.754123 
L 36.515913 41.341508 
L 35.753226 41.928893 
L 34.990539 42.516279 
L 34.227852 43.103664 
L 33.465164 43.691049 
L 32.702477 44.278435 
L 31.93979 44.86582 
L 31.177103 45.453205 
L 30.414416 46.040591 
L 29.651728 46.627976 
L 28.889041 47.215361 
L 28.126354 47.802747 
L 27.363667 48.390132 
L 26.600979 48.977517 
L 25.838292 49.564902 
L 25.075605 50.152288 
L 24.312918 50.739673 
L 23.55023 51.327058 
L 22.787543 51.914444 
L 22.024856 52.501829 
L 21.262169 53.089214 
L 20.499482 53.6766 
L 19.736794 54.263985 
L 18.974107 54.85137 
L 18.21142 55.438756 
L 17.448733 56.026141 
L 16.686045 56.613526 
L 15.923358 57.200912 
L 15.160671 57.788297 
L 14.397984 58.375682 
L 13.635296 58.963068 
L 12.872609 59.550453 
L 12.109922 60.137838 
L 11.347235 60.725224 
L 10.584547 61.312609 
z
" clip-path="url(#p1ec1360d01)" style="fill: #ff0000; fill-opacity: 0.2; stroke: #ff0000; stroke-opacity: 0.2"/>
   </g>
   <g id="matplotlib.axis_1">
    <g id="text_1">
     <!-- Time -->
     <g transform="translate(35.415876 47.917682) scale(0.08 -0.08)">
      <defs>
       <path id="CMSS17-54" d="M 2317 3987 
L 2848 3987 
C 2925 3987 3002 3980 3078 3980 
L 3878 3980 
L 3878 4396 
L 218 4396 
L 218 3980 
L 1018 3980 
C 1094 3980 1171 3987 1248 3987 
L 1779 3987 
L 1779 0 
L 2317 0 
L 2317 3987 
z
" transform="scale(0.015625)"/>
       <path id="CMSS17-69" d="M 979 4224 
L 442 4224 
L 442 3686 
L 979 3686 
L 979 4224 
z
M 947 2752 
L 474 2752 
L 474 0 
L 947 0 
L 947 2752 
z
" transform="scale(0.015625)"/>
       <path id="CMSS17-6d" d="M 4288 1878 
C 4288 2309 4179 2816 3462 2816 
C 2982 2816 2694 2515 2566 2328 
C 2451 2668 2182 2816 1798 2816 
C 1363 2816 1088 2566 941 2386 
L 941 2783 
L 474 2783 
L 474 0 
L 960 0 
L 960 1556 
C 960 1936 1101 2425 1555 2425 
C 2138 2425 2138 2013 2138 1826 
L 2138 0 
L 2624 0 
L 2624 1556 
C 2624 1936 2765 2425 3219 2425 
C 3802 2425 3802 2013 3802 1826 
L 3802 0 
L 4288 0 
L 4288 1878 
z
" transform="scale(0.015625)"/>
       <path id="CMSS17-65" d="M 2502 1375 
C 2502 1587 2490 2001 2285 2347 
C 2061 2713 1696 2816 1421 2816 
C 755 2816 192 2184 192 1363 
C 192 579 774 -64 1510 -64 
C 1798 -64 2150 19 2470 249 
C 2470 275 2458 414 2451 421 
C 2451 433 2432 629 2432 655 
C 2125 408 1773 326 1517 326 
C 1107 326 666 667 646 1375 
L 2502 1375 
z
M 698 1728 
C 781 2086 1062 2425 1421 2425 
C 1517 2425 1965 2412 2080 1728 
L 698 1728 
z
" transform="scale(0.015625)"/>
      </defs>
      <use xlink:href="#CMSS17-54" transform="scale(0.996264)"/>
      <use xlink:href="#CMSS17-69" transform="translate(63.819454 0) scale(0.996264)"/>
      <use xlink:href="#CMSS17-6d" transform="translate(86.000177 0) scale(0.996264)"/>
      <use xlink:href="#CMSS17-65" transform="translate(160.229431 0) scale(0.996264)"/>
     </g>
    </g>
   </g>
   <g id="matplotlib.axis_2">
    <g id="text_2">
     <!-- Bytes -->
     <g transform="translate(5.534802 29.999243) rotate(-90) scale(0.08 -0.08)">
      <defs>
       <path id="CMSS17-42" d="M 570 4416 
L 570 0 
L 2163 0 
C 3034 0 3667 575 3667 1200 
C 3667 1684 3251 2175 2502 2316 
C 3334 2559 3501 3039 3501 3311 
C 3501 3880 2874 4416 1997 4416 
L 570 4416 
z
M 1088 2496 
L 1088 4057 
L 1824 4057 
C 2483 4057 3002 3722 3002 3305 
C 3002 2925 2592 2496 1766 2496 
L 1088 2496 
z
M 1088 358 
L 1088 2105 
L 1939 2105 
C 2630 2105 3162 1678 3162 1206 
C 3162 772 2694 358 1984 358 
L 1088 358 
z
" transform="scale(0.015625)"/>
       <path id="CMSS17-79" d="M 2675 2752 
L 2176 2752 
C 1632 1293 1446 701 1434 383 
L 1427 383 
C 1408 695 1126 1459 902 2006 
L 602 2752 
L 83 2752 
L 1216 14 
C 1146 -177 1043 -464 1011 -527 
C 870 -884 774 -884 672 -884 
C 646 -884 442 -877 211 -807 
L 250 -1229 
C 410 -1261 570 -1280 685 -1280 
C 845 -1280 1165 -1280 1459 -495 
L 2675 2752 
z
" transform="scale(0.015625)"/>
       <path id="CMSS17-74" d="M 1069 2380 
L 1901 2380 
L 1901 2752 
L 1069 2752 
L 1069 3520 
L 614 3520 
L 614 2752 
L 109 2752 
L 109 2380 
L 602 2380 
L 602 751 
C 602 384 685 -64 1107 -64 
C 1427 -64 1722 25 2003 172 
L 1901 551 
C 1747 416 1562 339 1363 339 
C 1082 339 1069 699 1069 860 
L 1069 2380 
z
" transform="scale(0.015625)"/>
       <path id="CMSS17-73" d="M 2061 2623 
C 1683 2803 1389 2816 1197 2816 
C 742 2816 198 2655 198 2009 
C 198 1363 902 1222 1094 1183 
C 1389 1126 1715 1062 1715 742 
C 1715 339 1254 339 1171 339 
C 915 339 563 409 243 639 
L 166 211 
C 531 0 883 -64 1178 -64 
C 1965 -64 2163 416 2163 780 
C 2163 1094 1984 1305 1862 1401 
C 1651 1567 1574 1587 1050 1695 
C 960 1708 646 1779 646 2067 
C 646 2431 1050 2431 1139 2431 
C 1555 2431 1811 2303 1984 2207 
L 2061 2623 
z
" transform="scale(0.015625)"/>
      </defs>
      <use xlink:href="#CMSS17-42" transform="scale(0.996264)"/>
      <use xlink:href="#CMSS17-79" transform="translate(62.33804 0) scale(0.996264)"/>
      <use xlink:href="#CMSS17-74" transform="translate(105.338182 0) scale(0.996264)"/>
      <use xlink:href="#CMSS17-65" transform="translate(139.169749 0) scale(0.996264)"/>
      <use xlink:href="#CMSS17-73" transform="translate(180.808571 0) scale(0.996264)"/>
     </g>
    </g>
   </g>
   <g id="line2d_1">
    <path d="M 10.584547 38.882881 
L 11.347235 38.295495 
L 12.109922 37.70811 
L 12.872609 37.120725 
L 13.635296 36.533339 
L 14.397984 35.945954 
L 15.160671 35.358569 
L 15.923358 34.771183 
L 16.686045 34.183798 
L 17.448733 33.596413 
L 18.21142 33.009027 
L 18.974107 32.421642 
L 19.736794 31.834257 
L 20.499482 31.246871 
L 21.262169 30.659486 
L 22.024856 30.072101 
L 22.787543 29.484715 
L 23.55023 28.89733 
L 24.312918 28.309945 
L 25.075605 27.722559 
L 25.838292 27.135174 
L 26.600979 26.547789 
L 27.363667 25.960403 
L 28.126354 25.373018 
L 28.889041 24.785633 
L 29.651728 24.198247 
L 30.414416 23.610862 
L 31.177103 23.023477 
L 31.93979 22.436091 
L 32.702477 21.848706 
L 33.465164 21.261321 
L 34.227852 20.673935 
L 34.990539 20.08655 
L 35.753226 19.499165 
L 36.515913 18.911779 
L 37.278601 18.324394 
L 38.041288 17.737009 
L 38.803975 17.149623 
L 39.566662 16.562238 
L 40.32935 15.974853 
L 41.092037 15.387467 
L 41.854724 14.800082 
L 42.617411 14.212697 
L 43.380099 13.625311 
L 44.142786 13.037926 
L 44.905473 12.450541 
L 45.66816 11.863155 
L 46.430847 11.27577 
L 47.193535 10.688385 
L 47.956222 10.100999 
L 48.718909 9.513614 
L 49.481596 8.926229 
L 50.244284 8.338843 
L 51.006971 7.751458 
L 51.769658 7.164073 
L 52.532345 6.576688 
L 53.295033 5.989302 
L 54.05772 5.401917 
L 54.820407 4.814532 
L 55.583094 4.227146 
L 56.345782 3.639761 
L 57.108469 3.052376 
L 57.871156 2.46499 
L 58.633843 1.877605 
L 59.39653 1.29022 
L 60.159218 0.702834 
L 60.921905 0.115449 
L 61.684592 -0.471936 
L 62.370253 -1 
" clip-path="url(#p1ec1360d01)" style="fill: none; stroke: #000000; stroke-linecap: square"/>
   </g>
   <g id="line2d_2">
    <path d="M 24.666413 50.467428 
L 25.075605 50.152288 
L 25.838292 49.564902 
L 26.600979 48.977517 
L 27.363667 48.390132 
L 28.126354 47.802747 
L 28.889041 47.215361 
L 29.651728 46.627976 
L 30.414416 46.040591 
L 31.177103 45.453205 
L 31.93979 44.86582 
L 32.702477 44.278435 
L 33.465164 43.691049 
L 34.227852 43.103664 
L 34.990539 42.516279 
L 35.753226 41.928893 
L 36.515913 41.341508 
L 37.278601 40.754123 
L 38.041288 40.166737 
L 38.803975 39.579352 
L 39.566662 38.991967 
L 40.32935 38.404581 
L 41.092037 37.817196 
L 41.854724 37.229811 
L 42.617411 36.642425 
L 43.380099 36.05504 
L 44.142786 35.467655 
L 44.905473 34.880269 
L 45.66816 34.292884 
L 46.430847 33.705499 
L 47.193535 33.118113 
L 47.956222 32.530728 
L 48.718909 31.943343 
L 49.481596 31.355957 
L 50.244284 30.768572 
L 51.006971 30.181187 
L 51.769658 29.593801 
L 52.532345 29.006416 
L 53.295033 28.419031 
L 54.05772 27.831645 
L 54.820407 27.24426 
L 55.583094 26.656875 
L 56.345782 26.069489 
L 57.108469 25.482104 
L 57.871156 24.894719 
L 58.633843 24.307333 
L 59.39653 23.719948 
L 60.159218 23.132563 
L 60.921905 22.545177 
L 61.684592 21.957792 
L 62.447279 21.370407 
L 63.209967 20.783021 
L 63.972654 20.195636 
L 64.735341 19.608251 
L 65.498028 19.020865 
L 66.260716 18.43348 
L 67.023403 17.846095 
L 67.78609 17.258709 
L 68.548777 16.671324 
L 69.311465 16.083939 
L 70.074152 15.496553 
L 70.836839 14.909168 
L 71.599526 14.321783 
L 72.362213 13.734397 
L 73.124901 13.147012 
L 73.887588 12.559627 
L 74.650275 11.972241 
L 75.412962 11.384856 
L 76.17565 10.797471 
L 76.938337 10.210085 
L 77.701024 9.6227 
L 78.463711 9.035315 
L 79.226399 8.447929 
L 79.989086 7.860544 
L 80.751773 7.273159 
L 81.03998 7.051195 
" clip-path="url(#p1ec1360d01)" style="fill: none; stroke: #000000; stroke-linecap: square"/>
   </g>
   <g id="line2d_3">
    <defs>
     <path id="md620c54658" d="M 1.5 0 
L -1.5 -1.5 
L -1.5 1.5 
z
" style="stroke: #000000; stroke-width: 0.5; stroke-linejoin: miter"/>
    </defs>
    <g>
     <use xlink:href="#md620c54658" x="78.53998" y="38.882881" style="stroke: #000000; stroke-width: 0.5; stroke-linejoin: miter"/>
    </g>
   </g>
   <g id="line2d_4">
    <defs>
     <path id="m2a630615e6" d="M 0 -1.5 
L -1.5 1.5 
L 1.5 1.5 
z
" style="stroke: #000000; stroke-width: 0.5; stroke-linejoin: miter"/>
    </defs>
    <g>
     <use xlink:href="#m2a630615e6" x="10.584547" y="1.5" style="stroke: #000000; stroke-width: 0.5; stroke-linejoin: miter"/>
    </g>
   </g>
   <g id="patch_2">
    <path d="M 10.584547 38.882881 
L 10.584547 1.5 
" style="fill: none; stroke: #000000; stroke-width: 0.5; stroke-linejoin: miter; stroke-linecap: square"/>
   </g>
   <g id="patch_3">
    <path d="M 10.584547 38.882881 
L 78.53998 38.882881 
" style="fill: none; stroke: #000000; stroke-width: 0.5; stroke-linejoin: miter; stroke-linecap: square"/>
   </g>
   <g id="text_3">
    <!-- $\mathit{S}(t)$ -->
    <g transform="translate(37.76672 23.929728) scale(0.08 -0.08)">
     <defs>
      <path id="CMSSI17-53" d="M 3693 4230 
C 3386 4441 3085 4544 2656 4544 
C 1734 4544 1011 3780 1011 3071 
C 1011 2768 1139 2536 1280 2394 
C 1472 2195 1581 2162 2189 1995 
C 2381 1937 2784 1827 2784 1318 
C 2784 848 2330 307 1715 307 
C 1267 307 838 494 544 829 
L 339 320 
C 704 19 1165 -128 1632 -128 
C 2515 -128 3290 668 3290 1473 
C 3290 1814 3162 2034 3014 2201 
C 2835 2401 2650 2452 2234 2575 
C 1869 2678 1837 2684 1702 2800 
C 1690 2813 1523 2955 1523 3226 
C 1523 3670 1978 4121 2566 4121 
C 2790 4121 3181 4089 3494 3715 
L 3693 4230 
z
" transform="scale(0.015625)"/>
      <path id="CMSS17-28" d="M 1613 4800 
C 1267 4447 474 3627 474 1603 
C 474 -428 1267 -1242 1613 -1600 
L 2003 -1600 
C 1216 -781 960 366 960 1596 
C 960 2820 1203 3973 2003 4800 
L 1613 4800 
z
" transform="scale(0.015625)"/>
      <path id="CMSSI17-74" d="M 1574 2380 
L 2406 2380 
L 2483 2752 
L 1651 2752 
L 1824 3520 
L 1370 3520 
L 1197 2752 
L 691 2752 
L 614 2380 
L 1107 2380 
C 1062 2161 813 996 794 893 
C 736 609 723 551 723 410 
C 723 6 915 -64 1101 -64 
C 1549 -64 1920 115 2042 172 
L 2022 551 
C 1811 397 1600 339 1440 339 
C 1293 339 1222 429 1222 622 
C 1222 693 1229 732 1242 783 
L 1574 2380 
z
" transform="scale(0.015625)"/>
      <path id="CMSS17-29" d="M 723 -1600 
C 1069 -1248 1862 -428 1862 1596 
C 1862 3627 1069 4440 723 4800 
L 333 4800 
C 1120 3979 1376 2833 1376 1603 
C 1376 379 1133 -774 333 -1600 
L 723 -1600 
z
" transform="scale(0.015625)"/>
     </defs>
     <use xlink:href="#CMSSI17-53" transform="scale(0.996264)"/>
     <use xlink:href="#CMSS17-28" transform="translate(61.54925 0) scale(0.996264)"/>
     <use xlink:href="#CMSSI17-74" transform="translate(97.983164 0) scale(0.996264)"/>
     <use xlink:href="#CMSS17-29" transform="translate(138.848976 0) scale(0.996264)"/>
    </g>
   </g>
  </g>
 </g>
 <defs>
  <clipPath id="p1ec1360d01">
   <rect x="10.584547" y="1.5" width="67.955433" height="37.382881"/>
  </clipPath>
 </defs>
</svg>
